<svg width="145" height="88" viewBox="0 0 145 88" fill="none" xmlns="http://www.w3.org/2000/svg">
<rect x="0.516968" y="1.20755" width="143.966" height="85.9057" rx="5" stroke="#E9EFF4"/>
<mask id="mask0_63102_4924" style="mask-type:luminance" maskUnits="userSpaceOnUse" x="0" y="0" width="145" height="88">
<rect x="0.516968" y="1.20755" width="143.966" height="85.9057" rx="5" fill="white" stroke="white"/>
</mask>
<g mask="url(#mask0_63102_4924)">
<path fill-rule="evenodd" clip-rule="evenodd" d="M-2.04753 76.6305C-2.04753 76.6305 17.5656 82.42 23.7441 77.4228C29.9227 72.4257 32.9437 66.6447 37.2742 69.1866C41.6047 71.7286 47.9071 80.6783 54.1868 78.2156C60.4664 75.7528 69.0859 67.6688 77.0187 69.6315C84.9516 71.5947 87.2754 77.0776 93.0857 75.045C98.896 73.0125 102.506 57.0646 111.267 60.2894C120.027 63.5142 123.749 71.4443 130.293 71.4786C136.837 71.5124 134.307 79.7855 140.864 77.1942C147.421 74.6028 153.388 73.0467 156.931 82.5748C160.473 92.1033 157.353 108.335 157.353 108.335L-5.00723 104.768L-2.04753 76.6305Z" fill="url(#paint0_linear_63102_4924)" stroke="#5A4FF3" stroke-opacity="0.55" stroke-width="2"/>
<path fill-rule="evenodd" clip-rule="evenodd" d="M72.2154 37.9844H72.8079V1.2523H72.2154V37.9844Z" fill="#E9EFF4"/>
<path fill-rule="evenodd" clip-rule="evenodd" d="M144.187 37.6434V38.2359L0.220734 38.2359L0.220734 37.6434L144.187 37.6434Z" fill="#E9EFF4"/>
<rect x="96.1792" y="62.5076" width="8.92453" height="8.92453" rx="4.46226" fill="url(#paint1_linear_63102_4924)" stroke="white" stroke-width="3"/>
<path d="M29.3251 47.8386V48.153C29.3251 48.5267 29.2784 48.8617 29.185 49.1579C29.0916 49.4542 28.9571 49.7059 28.7817 49.9133C28.6062 50.1207 28.3954 50.279 28.1494 50.3884C27.9055 50.4978 27.6321 50.5525 27.329 50.5525C27.0351 50.5525 26.7651 50.4978 26.519 50.3884C26.2752 50.279 26.0633 50.1207 25.8832 49.9133C25.7055 49.7059 25.5676 49.4542 25.4697 49.1579C25.3717 48.8617 25.3227 48.5267 25.3227 48.153V47.8386C25.3227 47.4649 25.3705 47.1311 25.4662 46.8371C25.5642 46.5409 25.7021 46.2891 25.8798 46.0818C26.0576 45.8721 26.2683 45.7126 26.5121 45.6032C26.7582 45.4939 27.0283 45.4392 27.3222 45.4392C27.6253 45.4392 27.8987 45.4939 28.1425 45.6032C28.3886 45.7126 28.5994 45.8721 28.7748 46.0818C28.9526 46.2891 29.0882 46.5409 29.1816 46.8371C29.2773 47.1311 29.3251 47.4649 29.3251 47.8386ZM28.6723 48.153V47.8318C28.6723 47.5355 28.6415 47.2735 28.58 47.0456C28.5208 46.8178 28.433 46.6264 28.3168 46.4714C28.2006 46.3165 28.0582 46.1991 27.8896 46.1194C27.7232 46.0396 27.5341 45.9997 27.3222 45.9997C27.1171 45.9997 26.9314 46.0396 26.7651 46.1194C26.601 46.1991 26.4597 46.3165 26.3412 46.4714C26.225 46.6264 26.135 46.8178 26.0712 47.0456C26.0074 47.2735 25.9755 47.5355 25.9755 47.8318V48.153C25.9755 48.4515 26.0074 48.7159 26.0712 48.946C26.135 49.1739 26.2262 49.3664 26.3447 49.5237C26.4654 49.6786 26.6078 49.7959 26.7719 49.8757C26.9383 49.9555 27.124 49.9953 27.329 49.9953C27.5432 49.9953 27.7335 49.9555 27.8998 49.8757C28.0662 49.7959 28.2063 49.6786 28.3203 49.5237C28.4365 49.3664 28.5242 49.1739 28.5834 48.946C28.6427 48.7159 28.6723 48.4515 28.6723 48.153ZM31.7317 49.9133L32.7435 46.7859H33.3895L32.0599 50.4841H31.636L31.7317 49.9133ZM30.8875 46.7859L31.93 49.9304L32.0018 50.4841H31.5779L30.2381 46.7859H30.8875ZM35.8747 50.5525C35.6172 50.5525 35.3836 50.5092 35.174 50.4226C34.9666 50.3337 34.7878 50.2095 34.6374 50.05C34.4892 49.8905 34.3753 49.7014 34.2956 49.4826C34.2158 49.2639 34.1759 49.0246 34.1759 48.7649V48.6213C34.1759 48.3205 34.2204 48.0528 34.3092 47.8181C34.3981 47.5811 34.5189 47.3806 34.6715 47.2165C34.8242 47.0525 34.9974 46.9283 35.1911 46.844C35.3848 46.7597 35.5853 46.7175 35.7926 46.7175C36.057 46.7175 36.2848 46.7631 36.4762 46.8542C36.6699 46.9454 36.8283 47.073 36.9513 47.237C37.0744 47.3988 37.1655 47.5902 37.2248 47.8112C37.284 48.03 37.3136 48.2693 37.3136 48.529V48.8127H34.5519V48.2966H36.6813V48.2487C36.6722 48.0847 36.638 47.9252 36.5788 47.7702C36.5218 47.6153 36.4307 47.4877 36.3053 47.3874C36.18 47.2872 36.0091 47.237 35.7926 47.237C35.6491 47.237 35.5169 47.2678 35.3961 47.3293C35.2754 47.3886 35.1717 47.4774 35.0851 47.5959C34.9985 47.7144 34.9313 47.8591 34.8835 48.03C34.8356 48.2009 34.8117 48.398 34.8117 48.6213V48.7649C34.8117 48.9403 34.8356 49.1055 34.8835 49.2605C34.9336 49.4131 35.0054 49.5476 35.0988 49.6638C35.1945 49.78 35.3096 49.8711 35.444 49.9372C35.5807 50.0033 35.7357 50.0363 35.9088 50.0363C36.1322 50.0363 36.3213 49.9908 36.4762 49.8996C36.6312 49.8085 36.7668 49.6866 36.883 49.5339L37.2658 49.8381C37.186 49.9589 37.0846 50.0739 36.9616 50.1833C36.8385 50.2927 36.687 50.3816 36.507 50.4499C36.3293 50.5183 36.1185 50.5525 35.8747 50.5525ZM39.0742 47.3669V50.4841H38.4419V46.7859H39.0571L39.0742 47.3669ZM40.2295 46.7654L40.2261 47.3532C40.1737 47.3418 40.1236 47.335 40.0757 47.3327C40.0301 47.3282 39.9777 47.3259 39.9185 47.3259C39.7726 47.3259 39.6439 47.3487 39.5322 47.3943C39.4206 47.4398 39.326 47.5036 39.2486 47.5857C39.1711 47.6677 39.1096 47.7657 39.064 47.8796C39.0207 47.9913 38.9922 48.1143 38.9785 48.2487L38.8008 48.3513C38.8008 48.128 38.8224 47.9183 38.8657 47.7224C38.9113 47.5264 38.9808 47.3532 39.0742 47.2029C39.1677 47.0502 39.2861 46.9317 39.4297 46.8474C39.5755 46.7608 39.7487 46.7175 39.9492 46.7175C39.9948 46.7175 40.0472 46.7232 40.1065 46.7346C40.1657 46.7437 40.2067 46.754 40.2295 46.7654ZM43.2479 49.8518V47.948C43.2479 47.8021 43.2183 47.6757 43.1591 47.5686C43.1021 47.4592 43.0155 47.3749 42.8993 47.3156C42.7831 47.2564 42.6395 47.2268 42.4686 47.2268C42.3091 47.2268 42.169 47.2541 42.0482 47.3088C41.9297 47.3635 41.8363 47.4353 41.7679 47.5241C41.7019 47.613 41.6688 47.7087 41.6688 47.8112H41.0365C41.0365 47.6791 41.0707 47.5481 41.139 47.4182C41.2074 47.2883 41.3054 47.1709 41.433 47.0661C41.5629 46.959 41.7178 46.8747 41.8978 46.8132C42.0801 46.7494 42.2829 46.7175 42.5062 46.7175C42.7751 46.7175 43.0121 46.7631 43.2172 46.8542C43.4245 46.9454 43.5863 47.0832 43.7025 47.2678C43.821 47.4501 43.8803 47.6791 43.8803 47.9548V49.6775C43.8803 49.8005 43.8905 49.9315 43.911 50.0705C43.9338 50.2095 43.9668 50.3292 44.0101 50.4294V50.4841H43.3505C43.3186 50.4112 43.2935 50.3143 43.2753 50.1936C43.257 50.0705 43.2479 49.9566 43.2479 49.8518ZM43.3573 48.2419L43.3641 48.6862H42.725C42.545 48.6862 42.3843 48.7011 42.243 48.7307C42.1018 48.758 41.9833 48.8002 41.8876 48.8571C41.7919 48.9141 41.719 48.9859 41.6688 49.0725C41.6187 49.1568 41.5936 49.2559 41.5936 49.3698C41.5936 49.4861 41.6198 49.592 41.6722 49.6877C41.7247 49.7834 41.8033 49.8598 41.9081 49.9167C42.0152 49.9714 42.1462 49.9987 42.3011 49.9987C42.4948 49.9987 42.6657 49.9577 42.8138 49.8757C42.962 49.7937 43.0793 49.6934 43.1659 49.5749C43.2548 49.4564 43.3026 49.3414 43.3095 49.2297L43.5795 49.5339C43.5635 49.6296 43.5202 49.7356 43.4496 49.8518C43.3789 49.968 43.2844 50.0796 43.1659 50.1867C43.0497 50.2916 42.9107 50.3793 42.7489 50.4499C42.5894 50.5183 42.4094 50.5525 42.2089 50.5525C41.9582 50.5525 41.7383 50.5035 41.5492 50.4055C41.3623 50.3075 41.2165 50.1765 41.1117 50.0124C41.0092 49.8461 40.9579 49.6604 40.9579 49.4553C40.9579 49.257 40.9966 49.0827 41.0741 48.9323C41.1516 48.7797 41.2632 48.6532 41.4091 48.5529C41.5549 48.4504 41.7303 48.3729 41.9354 48.3205C42.1405 48.2681 42.3695 48.2419 42.6224 48.2419H43.3573ZM45.9519 45.2341V50.4841H45.3162V45.2341H45.9519ZM48.044 45.2341V50.4841H47.4083V45.2341H48.044ZM53.7562 49.8518V47.948C53.7562 47.8021 53.7265 47.6757 53.6673 47.5686C53.6103 47.4592 53.5237 47.3749 53.4075 47.3156C53.2913 47.2564 53.1478 47.2268 52.9769 47.2268C52.8174 47.2268 52.6772 47.2541 52.5565 47.3088C52.438 47.3635 52.3445 47.4353 52.2762 47.5241C52.2101 47.613 52.1771 47.7087 52.1771 47.8112H51.5447C51.5447 47.6791 51.5789 47.5481 51.6473 47.4182C51.7156 47.2883 51.8136 47.1709 51.9412 47.0661C52.0711 46.959 52.2261 46.8747 52.4061 46.8132C52.5884 46.7494 52.7912 46.7175 53.0145 46.7175C53.2833 46.7175 53.5203 46.7631 53.7254 46.8542C53.9328 46.9454 54.0945 47.0832 54.2108 47.2678C54.3292 47.4501 54.3885 47.6791 54.3885 47.9548V49.6775C54.3885 49.8005 54.3987 49.9315 54.4193 50.0705C54.442 50.2095 54.4751 50.3292 54.5184 50.4294V50.4841H53.8587C53.8268 50.4112 53.8017 50.3143 53.7835 50.1936C53.7653 50.0705 53.7562 49.9566 53.7562 49.8518ZM53.8655 48.2419L53.8724 48.6862H53.2332C53.0532 48.6862 52.8926 48.7011 52.7513 48.7307C52.61 48.758 52.4915 48.8002 52.3958 48.8571C52.3001 48.9141 52.2272 48.9859 52.1771 49.0725C52.1269 49.1568 52.1019 49.2559 52.1019 49.3698C52.1019 49.4861 52.1281 49.592 52.1805 49.6877C52.2329 49.7834 52.3115 49.8598 52.4163 49.9167C52.5234 49.9714 52.6544 49.9987 52.8094 49.9987C53.0031 49.9987 53.174 49.9577 53.3221 49.8757C53.4702 49.7937 53.5875 49.6934 53.6741 49.5749C53.763 49.4564 53.8109 49.3414 53.8177 49.2297L54.0877 49.5339C54.0718 49.6296 54.0285 49.7356 53.9578 49.8518C53.8872 49.968 53.7926 50.0796 53.6741 50.1867C53.5579 50.2916 53.4189 50.3793 53.2571 50.4499C53.0976 50.5183 52.9176 50.5525 52.7171 50.5525C52.4665 50.5525 52.2466 50.5035 52.0574 50.4055C51.8706 50.3075 51.7248 50.1765 51.6199 50.0124C51.5174 49.8461 51.4661 49.6604 51.4661 49.4553C51.4661 49.257 51.5049 49.0827 51.5823 48.9323C51.6598 48.7797 51.7715 48.6532 51.9173 48.5529C52.0631 48.4504 52.2386 48.3729 52.4437 48.3205C52.6487 48.2681 52.8778 48.2419 53.1307 48.2419H53.8655ZM57.2531 50.0329C57.4035 50.0329 57.5425 50.0022 57.6701 49.9406C57.7977 49.8791 57.9025 49.7948 57.9845 49.6877C58.0666 49.5783 58.1133 49.4542 58.1247 49.3152H58.7262C58.7149 49.5339 58.6408 49.7378 58.5041 49.927C58.3696 50.1138 58.193 50.2654 57.9743 50.3816C57.7555 50.4955 57.5151 50.5525 57.2531 50.5525C56.9751 50.5525 56.7324 50.5035 56.5251 50.4055C56.32 50.3075 56.1491 50.1731 56.0124 50.0022C55.8779 49.8313 55.7765 49.6353 55.7082 49.4143C55.6421 49.191 55.6091 48.9551 55.6091 48.7068V48.5632C55.6091 48.3148 55.6421 48.0801 55.7082 47.8591C55.7765 47.6358 55.8779 47.4387 56.0124 47.2678C56.1491 47.0969 56.32 46.9625 56.5251 46.8645C56.7324 46.7665 56.9751 46.7175 57.2531 46.7175C57.5425 46.7175 57.7954 46.7767 58.0119 46.8952C58.2284 47.0114 58.3981 47.1709 58.5212 47.3737C58.6465 47.5743 58.7149 47.8021 58.7262 48.0573H58.1247C58.1133 47.9047 58.07 47.7668 57.9948 47.6438C57.9219 47.5207 57.8216 47.4227 57.694 47.3498C57.5687 47.2746 57.4217 47.237 57.2531 47.237C57.0594 47.237 56.8965 47.2758 56.7643 47.3532C56.6345 47.4284 56.5308 47.531 56.4533 47.6609C56.3781 47.7885 56.3234 47.9309 56.2892 48.0881C56.2573 48.2431 56.2414 48.4014 56.2414 48.5632V48.7068C56.2414 48.8685 56.2573 49.028 56.2892 49.1853C56.3211 49.3425 56.3747 49.4849 56.4499 49.6125C56.5274 49.7401 56.631 49.8427 56.7609 49.9201C56.8931 49.9953 57.0571 50.0329 57.2531 50.0329ZM61.3755 46.7859V47.2712H59.376V46.7859H61.3755ZM60.0528 45.8869H60.6851V49.5681C60.6851 49.6934 60.7045 49.788 60.7432 49.8518C60.7819 49.9156 60.8321 49.9577 60.8936 49.9782C60.9551 49.9987 61.0212 50.009 61.0918 50.009C61.1442 50.009 61.1989 50.0044 61.2559 49.9953C61.3151 49.9839 61.3596 49.9748 61.3892 49.968L61.3926 50.4841C61.3425 50.5001 61.2764 50.5149 61.1944 50.5285C61.1146 50.5445 61.0178 50.5525 60.9038 50.5525C60.7489 50.5525 60.6065 50.5217 60.4766 50.4602C60.3467 50.3987 60.243 50.2961 60.1656 50.1526C60.0904 50.0067 60.0528 49.8108 60.0528 49.5647V45.8869ZM63.1942 46.7859V50.4841H62.5585V46.7859H63.1942ZM62.5106 45.8049C62.5106 45.7024 62.5414 45.6158 62.6029 45.5451C62.6667 45.4745 62.7602 45.4392 62.8832 45.4392C63.004 45.4392 63.0963 45.4745 63.1601 45.5451C63.2261 45.6158 63.2592 45.7024 63.2592 45.8049C63.2592 45.9029 63.2261 45.9872 63.1601 46.0578C63.0963 46.1262 63.004 46.1604 62.8832 46.1604C62.7602 46.1604 62.6667 46.1262 62.6029 46.0578C62.5414 45.9872 62.5106 45.9029 62.5106 45.8049ZM65.7239 49.9133L66.7356 46.7859H67.3816L66.052 50.4841H65.6282L65.7239 49.9133ZM64.8796 46.7859L65.9221 49.9304L65.9939 50.4841H65.5701L64.2302 46.7859H64.8796ZM69.067 46.7859V50.4841H68.4313V46.7859H69.067ZM68.3834 45.8049C68.3834 45.7024 68.4142 45.6158 68.4757 45.5451C68.5395 45.4745 68.6329 45.4392 68.756 45.4392C68.8767 45.4392 68.969 45.4745 69.0328 45.5451C69.0989 45.6158 69.132 45.7024 69.132 45.8049C69.132 45.9029 69.0989 45.9872 69.0328 46.0578C68.969 46.1262 68.8767 46.1604 68.756 46.1604C68.6329 46.1604 68.5395 46.1262 68.4757 46.0578C68.4142 45.9872 68.3834 45.9029 68.3834 45.8049ZM72.0205 46.7859V47.2712H70.021V46.7859H72.0205ZM70.6977 45.8869H71.3301V49.5681C71.3301 49.6934 71.3494 49.788 71.3882 49.8518C71.4269 49.9156 71.477 49.9577 71.5386 49.9782C71.6001 49.9987 71.6662 50.009 71.7368 50.009C71.7892 50.009 71.8439 50.0044 71.9009 49.9953C71.9601 49.9839 72.0045 49.9748 72.0342 49.968L72.0376 50.4841C71.9874 50.5001 71.9214 50.5149 71.8393 50.5285C71.7596 50.5445 71.6627 50.5525 71.5488 50.5525C71.3939 50.5525 71.2514 50.5217 71.1216 50.4602C70.9917 50.3987 70.888 50.2961 70.8105 50.1526C70.7353 50.0067 70.6977 49.8108 70.6977 49.5647V45.8869ZM74.1912 50.1013L75.2201 46.7859H75.8968L74.4134 51.0549C74.3792 51.146 74.3337 51.244 74.2767 51.3488C74.222 51.4559 74.1514 51.5573 74.0648 51.653C73.9782 51.7487 73.8734 51.8262 73.7503 51.8855C73.6296 51.947 73.4849 51.9778 73.3162 51.9778C73.2661 51.9778 73.2023 51.9709 73.1248 51.9572C73.0474 51.9436 72.9927 51.9322 72.9608 51.9231L72.9574 51.4104C72.9756 51.4126 73.0041 51.4149 73.0428 51.4172C73.0838 51.4218 73.1123 51.424 73.1283 51.424C73.2718 51.424 73.3937 51.4047 73.494 51.3659C73.5942 51.3295 73.6786 51.2668 73.7469 51.1779C73.8175 51.0914 73.8779 50.9717 73.9281 50.8191L74.1912 50.1013ZM73.4359 46.7859L74.3963 49.657L74.5604 50.3235L74.1058 50.5559L72.7454 46.7859H73.4359Z" fill="#323C47"/>
<path d="M25.9091 10.0514V14.317H25.3437V10.0514H25.9091ZM27.7874 11.8238V14.317H27.2454V11.1471H27.7581L27.7874 11.8238ZM27.6585 12.6119L27.4329 12.6031C27.4348 12.3863 27.4671 12.1861 27.5296 12.0025C27.5921 11.817 27.6799 11.6559 27.7932 11.5191C27.9065 11.3824 28.0413 11.2769 28.1975 11.2027C28.3557 11.1266 28.5305 11.0885 28.7219 11.0885C28.8782 11.0885 29.0188 11.11 29.1438 11.1529C29.2688 11.1939 29.3753 11.2603 29.4632 11.3521C29.553 11.4439 29.6214 11.5631 29.6682 11.7096C29.7151 11.8541 29.7385 12.0309 29.7385 12.2398V14.317H29.1936V12.234C29.1936 12.068 29.1692 11.9352 29.1204 11.8355C29.0715 11.734 29.0003 11.6607 28.9065 11.6158C28.8128 11.5689 28.6975 11.5455 28.5608 11.5455C28.426 11.5455 28.303 11.5738 28.1917 11.6305C28.0823 11.6871 27.9876 11.7652 27.9075 11.8648C27.8294 11.9644 27.7678 12.0787 27.7229 12.2076C27.6799 12.3346 27.6585 12.4693 27.6585 12.6119ZM31.9157 13.8277L32.7828 11.1471H33.3365L32.1969 14.317H31.8336L31.9157 13.8277ZM31.192 11.1471L32.0856 13.8424L32.1471 14.317H31.7838L30.6354 11.1471H31.192ZM34.8369 11.1471V14.317H34.292V11.1471H34.8369ZM34.251 10.3062C34.251 10.2184 34.2773 10.1441 34.3301 10.0836C34.3848 10.023 34.4648 9.99277 34.5703 9.99277C34.6738 9.99277 34.7529 10.023 34.8076 10.0836C34.8642 10.1441 34.8926 10.2184 34.8926 10.3062C34.8926 10.3902 34.8642 10.4625 34.8076 10.523C34.7529 10.5816 34.6738 10.6109 34.5703 10.6109C34.4648 10.6109 34.3848 10.5816 34.3301 10.523C34.2773 10.4625 34.251 10.3902 34.251 10.3062ZM37.4242 11.1471V11.5631H35.7103V11.1471H37.4242ZM36.2904 10.3766H36.8324V13.5318C36.8324 13.6393 36.849 13.7203 36.8822 13.775C36.9154 13.8297 36.9583 13.8658 37.0111 13.8834C37.0638 13.901 37.1205 13.9098 37.181 13.9098C37.2259 13.9098 37.2728 13.9059 37.3216 13.898C37.3724 13.8883 37.4105 13.8805 37.4359 13.8746L37.4388 14.317C37.3958 14.3307 37.3392 14.3434 37.2689 14.3551C37.2005 14.3687 37.1175 14.3756 37.0199 14.3756C36.8871 14.3756 36.765 14.3492 36.6537 14.2965C36.5423 14.2437 36.4535 14.1559 36.3871 14.0328C36.3226 13.9078 36.2904 13.7398 36.2904 13.5289V10.3766ZM39.7653 14.3756C39.5446 14.3756 39.3444 14.3385 39.1648 14.2643C38.987 14.1881 38.8337 14.0816 38.7048 13.9449C38.5778 13.8082 38.4802 13.6461 38.4118 13.4586C38.3435 13.2711 38.3093 13.066 38.3093 12.8434V12.7203C38.3093 12.4625 38.3474 12.233 38.4235 12.0318C38.4997 11.8287 38.6032 11.6568 38.7341 11.5162C38.8649 11.3756 39.0134 11.2691 39.1794 11.1969C39.3454 11.1246 39.5173 11.0885 39.695 11.0885C39.9216 11.0885 40.1169 11.1275 40.281 11.2057C40.447 11.2838 40.5827 11.3932 40.6882 11.5338C40.7937 11.6725 40.8718 11.8365 40.9226 12.026C40.9733 12.2135 40.9987 12.4185 40.9987 12.6412V12.8844H38.6315V12.442H40.4567V12.401C40.4489 12.2603 40.4196 12.1236 40.3689 11.9908C40.32 11.858 40.2419 11.7486 40.1345 11.6627C40.0271 11.5768 39.8806 11.5338 39.695 11.5338C39.572 11.5338 39.4587 11.5602 39.3552 11.6129C39.2517 11.6637 39.1628 11.7398 39.0886 11.8414C39.0144 11.943 38.9567 12.067 38.9157 12.2135C38.8747 12.36 38.8542 12.5289 38.8542 12.7203V12.8434C38.8542 12.9937 38.8747 13.1353 38.9157 13.2682C38.9587 13.399 39.0202 13.5143 39.1003 13.6139C39.1823 13.7135 39.281 13.7916 39.3962 13.8482C39.5134 13.9049 39.6462 13.9332 39.7946 13.9332C39.986 13.9332 40.1482 13.8941 40.281 13.816C40.4138 13.7379 40.53 13.6334 40.6296 13.5025L40.9577 13.7633C40.8894 13.8668 40.8024 13.9654 40.697 14.0592C40.5915 14.1529 40.4616 14.2291 40.3073 14.2877C40.155 14.3463 39.9743 14.3756 39.7653 14.3756ZM43.8673 13.4762C43.8673 13.398 43.8497 13.3258 43.8145 13.2594C43.7813 13.191 43.712 13.1295 43.6065 13.0748C43.503 13.0182 43.3467 12.9693 43.1378 12.9283C42.962 12.8912 42.8028 12.8473 42.6602 12.7965C42.5196 12.7457 42.3995 12.6842 42.2999 12.6119C42.2022 12.5396 42.127 12.4547 42.0743 12.357C42.0215 12.2594 41.9952 12.1451 41.9952 12.0143C41.9952 11.8893 42.0225 11.7711 42.0772 11.6598C42.1339 11.5484 42.213 11.4498 42.3145 11.3639C42.418 11.2779 42.5421 11.2105 42.6866 11.1617C42.8311 11.1129 42.9923 11.0885 43.17 11.0885C43.4239 11.0885 43.6407 11.1334 43.8204 11.2232C44.0001 11.3131 44.1378 11.4332 44.2335 11.5836C44.3292 11.732 44.377 11.8971 44.377 12.0787H43.835C43.835 11.9908 43.8087 11.9059 43.7559 11.8238C43.7051 11.7398 43.6299 11.6705 43.5303 11.6158C43.4327 11.5611 43.3126 11.5338 43.17 11.5338C43.0196 11.5338 42.8975 11.5572 42.8038 11.6041C42.712 11.649 42.6446 11.7066 42.6016 11.7769C42.5606 11.8473 42.5401 11.9215 42.5401 11.9996C42.5401 12.0582 42.5499 12.1109 42.5694 12.1578C42.5909 12.2027 42.628 12.2447 42.6807 12.2838C42.7335 12.3209 42.8077 12.356 42.9034 12.3893C42.9991 12.4225 43.1212 12.4557 43.2696 12.4889C43.5294 12.5475 43.7432 12.6178 43.9112 12.6998C44.0792 12.7818 44.2042 12.8824 44.2862 13.0016C44.3682 13.1207 44.4092 13.2652 44.4092 13.4352C44.4092 13.5738 44.3799 13.7008 44.3214 13.816C44.2647 13.9312 44.1817 14.0309 44.0723 14.1148C43.9649 14.1969 43.836 14.2613 43.6856 14.3082C43.5372 14.3531 43.3702 14.3756 43.1846 14.3756C42.9053 14.3756 42.669 14.3258 42.4757 14.2262C42.2823 14.1266 42.1358 13.9977 42.0362 13.8394C41.9366 13.6812 41.8868 13.5143 41.8868 13.3385H42.4317C42.4395 13.4869 42.4825 13.6051 42.5606 13.693C42.6387 13.7789 42.7344 13.8404 42.8477 13.8775C42.961 13.9127 43.0733 13.9303 43.1846 13.9303C43.3331 13.9303 43.4571 13.9107 43.5567 13.8717C43.6583 13.8326 43.7354 13.7789 43.7882 13.7105C43.8409 13.6422 43.8673 13.5641 43.8673 13.4762Z" fill="#323C47"/>
<path d="M29.9784 24.6458V25.808C29.9784 26.3646 29.9231 26.8399 29.8124 27.2337C29.705 27.6244 29.5487 27.9417 29.3437 28.1859C29.1386 28.43 28.8928 28.6091 28.6064 28.723C28.3232 28.8369 28.0058 28.8939 27.6542 28.8939C27.3743 28.8939 27.1138 28.8581 26.873 28.7865C26.6353 28.7149 26.4205 28.6025 26.2284 28.4496C26.0364 28.2966 25.872 28.0996 25.7353 27.8587C25.6018 27.6146 25.4976 27.3233 25.4228 26.9847C25.3511 26.6462 25.3153 26.2539 25.3153 25.808V24.6458C25.3153 24.0859 25.3707 23.6139 25.4814 23.2298C25.592 22.8425 25.7499 22.5283 25.955 22.2874C26.1601 22.0433 26.4042 21.8659 26.6874 21.7552C26.9739 21.6445 27.2929 21.5892 27.6444 21.5892C27.9276 21.5892 28.1881 21.625 28.4257 21.6966C28.6666 21.765 28.8814 21.874 29.0702 22.0238C29.2623 22.1735 29.425 22.3688 29.5585 22.6097C29.6952 22.8473 29.7994 23.1354 29.871 23.474C29.9426 23.8093 29.9784 24.1999 29.9784 24.6458ZM28.8017 25.974V24.4701C28.8017 24.1869 28.7854 23.9378 28.7528 23.723C28.7203 23.5049 28.6715 23.321 28.6064 23.1712C28.5445 23.0182 28.4664 22.8945 28.372 22.8001C28.2776 22.7025 28.1702 22.6325 28.0497 22.5902C27.9293 22.5446 27.7942 22.5218 27.6444 22.5218C27.4621 22.5218 27.2994 22.5576 27.1562 22.6292C27.0129 22.6976 26.8925 22.8083 26.7948 22.9613C26.6972 23.1143 26.6223 23.3161 26.5702 23.5667C26.5214 23.8141 26.497 24.1152 26.497 24.4701V25.974C26.497 26.2604 26.5133 26.5127 26.5458 26.7308C26.5784 26.9489 26.6272 27.1361 26.6923 27.2923C26.7574 27.4453 26.8355 27.5723 26.9267 27.6732C27.0211 27.7708 27.1285 27.8425 27.2489 27.888C27.3726 27.9336 27.5077 27.9564 27.6542 27.9564C27.8398 27.9564 28.0041 27.9206 28.1474 27.849C28.2906 27.7774 28.411 27.6634 28.5087 27.5072C28.6064 27.3477 28.6796 27.141 28.7284 26.8871C28.7773 26.6331 28.8017 26.3288 28.8017 25.974ZM32.4101 24.7093H33.1132C33.3866 24.7093 33.6129 24.6621 33.7919 24.5677C33.9742 24.4733 34.1093 24.3431 34.1972 24.1771C34.2851 24.0111 34.329 23.8206 34.329 23.6058C34.329 23.3812 34.2883 23.1891 34.2069 23.0296C34.1288 22.8669 34.0084 22.7415 33.8456 22.6537C33.6861 22.5658 33.4827 22.5218 33.2353 22.5218C33.0269 22.5218 32.8381 22.5641 32.6689 22.6488C32.5028 22.7302 32.371 22.8473 32.2733 23.0003C32.1757 23.1501 32.1269 23.3291 32.1269 23.5374H30.9452C30.9452 23.1598 31.0445 22.8246 31.2431 22.5316C31.4416 22.2386 31.7118 22.0091 32.0536 21.8431C32.3987 21.6738 32.786 21.5892 33.2157 21.5892C33.6747 21.5892 34.0751 21.6657 34.4169 21.8187C34.762 21.9684 35.0305 22.193 35.2226 22.4925C35.4146 22.792 35.5107 23.1631 35.5107 23.6058C35.5107 23.8076 35.4635 24.0127 35.369 24.221C35.2746 24.4294 35.1347 24.6198 34.9491 24.7923C34.7636 24.9616 34.5325 25.0999 34.2558 25.2074C33.9791 25.3115 33.6584 25.3636 33.2939 25.3636H32.4101V24.7093ZM32.4101 25.6273V24.9828H33.2939C33.7105 24.9828 34.0653 25.0316 34.3583 25.1292C34.6545 25.2269 34.8954 25.362 35.081 25.5345C35.2665 25.7038 35.4016 25.8975 35.4862 26.1156C35.5741 26.3337 35.6181 26.5648 35.6181 26.8089C35.6181 27.141 35.5579 27.4372 35.4374 27.6976C35.3202 27.9548 35.1526 28.1729 34.9345 28.3519C34.7164 28.5309 34.4608 28.666 34.1679 28.7572C33.8782 28.8483 33.5624 28.8939 33.2206 28.8939C32.9146 28.8939 32.6217 28.8516 32.3417 28.7669C32.0618 28.6823 31.8111 28.557 31.5898 28.391C31.3684 28.2217 31.1926 28.0117 31.0624 27.7611C30.9355 27.5072 30.872 27.2142 30.872 26.8822H32.0487C32.0487 27.0938 32.0976 27.2809 32.1952 27.4437C32.2961 27.6032 32.4361 27.7285 32.6151 27.8197C32.7974 27.9108 33.0058 27.9564 33.2401 27.9564C33.4875 27.9564 33.7008 27.9124 33.8798 27.8246C34.0588 27.7367 34.1955 27.6065 34.2899 27.4339C34.3876 27.2614 34.4364 27.0531 34.4364 26.8089C34.4364 26.5322 34.3827 26.3076 34.2753 26.1351C34.1679 25.9626 34.0149 25.8356 33.8163 25.7542C33.6177 25.6696 33.3834 25.6273 33.1132 25.6273H32.4101Z" fill="#4DA1FF"/>
<path d="M96.7853 12.6441H95.6457V12.1842H96.7853C97.006 12.1842 97.1848 12.149 97.3215 12.0787C97.4582 12.0084 97.5578 11.9107 97.6203 11.7857C97.6848 11.6607 97.717 11.5182 97.717 11.358C97.717 11.2115 97.6848 11.0738 97.6203 10.9449C97.5578 10.816 97.4582 10.7125 97.3215 10.6344C97.1848 10.5543 97.006 10.5143 96.7853 10.5143H95.7775V14.317H95.2121V10.0514H96.7853C97.1076 10.0514 97.3801 10.107 97.6027 10.2184C97.8254 10.3297 97.9943 10.484 98.1096 10.6812C98.2248 10.8766 98.2824 11.1002 98.2824 11.3521C98.2824 11.6256 98.2248 11.859 98.1096 12.0523C97.9943 12.2457 97.8254 12.3932 97.6027 12.4947C97.3801 12.5943 97.1076 12.6441 96.7853 12.6441ZM100.58 14.3756C100.359 14.3756 100.159 14.3385 99.9791 14.2643C99.8013 14.1881 99.648 14.0816 99.5191 13.9449C99.3921 13.8082 99.2945 13.6461 99.2261 13.4586C99.1578 13.2711 99.1236 13.066 99.1236 12.8434V12.7203C99.1236 12.4625 99.1617 12.233 99.2378 12.0318C99.314 11.8287 99.4175 11.6568 99.5484 11.5162C99.6792 11.3756 99.8277 11.2691 99.9937 11.1969C100.16 11.1246 100.332 11.0885 100.509 11.0885C100.736 11.0885 100.931 11.1275 101.095 11.2057C101.261 11.2838 101.397 11.3932 101.502 11.5338C101.608 11.6725 101.686 11.8365 101.737 12.026C101.788 12.2135 101.813 12.4185 101.813 12.6412V12.8844H99.4458V12.442H101.271V12.401C101.263 12.2603 101.234 12.1236 101.183 11.9908C101.134 11.858 101.056 11.7486 100.949 11.6627C100.841 11.5768 100.695 11.5338 100.509 11.5338C100.386 11.5338 100.273 11.5602 100.169 11.6129C100.066 11.6637 99.9771 11.7398 99.9029 11.8414C99.8287 11.943 99.771 12.067 99.73 12.2135C99.689 12.36 99.6685 12.5289 99.6685 12.7203V12.8434C99.6685 12.9937 99.689 13.1353 99.73 13.2682C99.773 13.399 99.8345 13.5143 99.9146 13.6139C99.9966 13.7135 100.095 13.7916 100.21 13.8482C100.328 13.9049 100.46 13.9332 100.609 13.9332C100.8 13.9332 100.962 13.8941 101.095 13.816C101.228 13.7379 101.344 13.6334 101.444 13.5025L101.772 13.7633C101.704 13.8668 101.617 13.9654 101.511 14.0592C101.406 14.1529 101.276 14.2291 101.122 14.2877C100.969 14.3463 100.789 14.3756 100.58 14.3756ZM103.378 11.8238V14.317H102.836V11.1471H103.349L103.378 11.8238ZM103.249 12.6119L103.023 12.6031C103.025 12.3863 103.058 12.1861 103.12 12.0025C103.183 11.817 103.27 11.6559 103.384 11.5191C103.497 11.3824 103.632 11.2769 103.788 11.2027C103.946 11.1266 104.121 11.0885 104.312 11.0885C104.469 11.0885 104.609 11.11 104.734 11.1529C104.859 11.1939 104.966 11.2603 105.054 11.3521C105.143 11.4439 105.212 11.5631 105.259 11.7096C105.306 11.8541 105.329 12.0309 105.329 12.2398V14.317H104.784V12.234C104.784 12.068 104.76 11.9352 104.711 11.8355C104.662 11.734 104.591 11.6607 104.497 11.6158C104.403 11.5689 104.288 11.5455 104.151 11.5455C104.017 11.5455 103.893 11.5738 103.782 11.6305C103.673 11.6871 103.578 11.7652 103.498 11.8648C103.42 11.9644 103.358 12.0787 103.313 12.2076C103.27 12.3346 103.249 12.4693 103.249 12.6119ZM108.54 13.7018V9.81699H109.085V14.317H108.587L108.54 13.7018ZM106.407 12.7672V12.7057C106.407 12.4635 106.437 12.2437 106.495 12.0465C106.556 11.8473 106.641 11.6764 106.75 11.5338C106.862 11.3912 106.993 11.2818 107.146 11.2057C107.3 11.1275 107.472 11.0885 107.661 11.0885C107.861 11.0885 108.034 11.1236 108.183 11.1939C108.333 11.2623 108.46 11.3629 108.564 11.4957C108.669 11.6266 108.752 11.7848 108.813 11.9703C108.873 12.1559 108.915 12.3658 108.939 12.6002V12.8697C108.917 13.1021 108.875 13.3111 108.813 13.4967C108.752 13.6822 108.669 13.8404 108.564 13.9713C108.46 14.1021 108.333 14.2027 108.183 14.273C108.032 14.3414 107.857 14.3756 107.656 14.3756C107.47 14.3756 107.3 14.3355 107.146 14.2555C106.993 14.1754 106.862 14.0631 106.75 13.9185C106.641 13.774 106.556 13.6041 106.495 13.4088C106.437 13.2115 106.407 12.9977 106.407 12.7672ZM106.952 12.7057V12.7672C106.952 12.9254 106.968 13.0738 106.999 13.2125C107.032 13.3512 107.083 13.4732 107.152 13.5787C107.22 13.6842 107.307 13.7672 107.412 13.8277C107.518 13.8863 107.644 13.9156 107.79 13.9156C107.97 13.9156 108.117 13.8775 108.233 13.8014C108.35 13.7252 108.444 13.6246 108.514 13.4996C108.584 13.3746 108.639 13.2389 108.678 13.0924V12.3863C108.655 12.2789 108.62 12.1754 108.575 12.0758C108.532 11.9742 108.476 11.8844 108.406 11.8062C108.337 11.7262 108.252 11.6627 108.151 11.6158C108.051 11.5689 107.933 11.5455 107.796 11.5455C107.648 11.5455 107.52 11.5768 107.412 11.6393C107.307 11.6998 107.22 11.7838 107.152 11.8912C107.083 11.9967 107.032 12.1197 106.999 12.2603C106.968 12.399 106.952 12.5475 106.952 12.7057ZM110.908 11.1471V14.317H110.363V11.1471H110.908ZM110.322 10.3062C110.322 10.2184 110.348 10.1441 110.401 10.0836C110.456 10.023 110.536 9.99277 110.641 9.99277C110.745 9.99277 110.824 10.023 110.879 10.0836C110.935 10.1441 110.964 10.2184 110.964 10.3062C110.964 10.3902 110.935 10.4625 110.879 10.523C110.824 10.5816 110.745 10.6109 110.641 10.6109C110.536 10.6109 110.456 10.5816 110.401 10.523C110.348 10.4625 110.322 10.3902 110.322 10.3062ZM112.71 11.8238V14.317H112.168V11.1471H112.681L112.71 11.8238ZM112.581 12.6119L112.355 12.6031C112.357 12.3863 112.39 12.1861 112.452 12.0025C112.515 11.817 112.603 11.6559 112.716 11.5191C112.829 11.3824 112.964 11.2769 113.12 11.2027C113.278 11.1266 113.453 11.0885 113.645 11.0885C113.801 11.0885 113.941 11.11 114.066 11.1529C114.191 11.1939 114.298 11.2603 114.386 11.3521C114.476 11.4439 114.544 11.5631 114.591 11.7096C114.638 11.8541 114.661 12.0309 114.661 12.2398V14.317H114.116V12.234C114.116 12.068 114.092 11.9352 114.043 11.8355C113.994 11.734 113.923 11.6607 113.829 11.6158C113.735 11.5689 113.62 11.5455 113.483 11.5455C113.349 11.5455 113.226 11.5738 113.114 11.6305C113.005 11.6871 112.91 11.7652 112.83 11.8648C112.752 11.9644 112.69 12.0787 112.645 12.2076C112.603 12.3346 112.581 12.4693 112.581 12.6119ZM117.928 11.1471H118.42V14.2496C118.42 14.5289 118.364 14.7672 118.25 14.9644C118.137 15.1617 117.979 15.3111 117.776 15.4127C117.575 15.5162 117.342 15.568 117.078 15.568C116.969 15.568 116.84 15.5504 116.692 15.5152C116.545 15.482 116.401 15.4244 116.258 15.3424C116.118 15.2623 115.999 15.1539 115.904 15.0172L116.188 14.6949C116.321 14.8551 116.459 14.9664 116.604 15.0289C116.75 15.0914 116.895 15.1227 117.037 15.1227C117.209 15.1227 117.358 15.0904 117.483 15.026C117.608 14.9615 117.704 14.8658 117.773 14.7389C117.843 14.6139 117.878 14.4596 117.878 14.276V11.8443L117.928 11.1471ZM115.745 12.7672V12.7057C115.745 12.4635 115.774 12.2437 115.83 12.0465C115.889 11.8473 115.972 11.6764 116.079 11.5338C116.189 11.3912 116.321 11.2818 116.475 11.2057C116.629 11.1275 116.803 11.0885 116.996 11.0885C117.196 11.0885 117.369 11.1236 117.518 11.1939C117.668 11.2623 117.795 11.3629 117.899 11.4957C118.004 11.6266 118.087 11.7848 118.148 11.9703C118.208 12.1559 118.25 12.3658 118.274 12.6002V12.8697C118.252 13.1021 118.21 13.3111 118.148 13.4967C118.087 13.6822 118.004 13.8404 117.899 13.9713C117.795 14.1021 117.668 14.2027 117.518 14.273C117.368 14.3414 117.192 14.3756 116.991 14.3756C116.801 14.3756 116.629 14.3355 116.475 14.2555C116.323 14.1754 116.192 14.0631 116.082 13.9185C115.973 13.774 115.889 13.6041 115.83 13.4088C115.774 13.2115 115.745 12.9977 115.745 12.7672ZM116.287 12.7057V12.7672C116.287 12.9254 116.303 13.0738 116.334 13.2125C116.368 13.3512 116.417 13.4732 116.484 13.5787C116.552 13.6842 116.639 13.7672 116.744 13.8277C116.85 13.8863 116.976 13.9156 117.122 13.9156C117.302 13.9156 117.451 13.8775 117.568 13.8014C117.685 13.7252 117.778 13.6246 117.846 13.4996C117.916 13.3746 117.971 13.2389 118.01 13.0924V12.3863C117.989 12.2789 117.955 12.1754 117.91 12.0758C117.868 11.9742 117.811 11.8844 117.741 11.8062C117.672 11.7262 117.587 11.6627 117.486 11.6158C117.384 11.5689 117.265 11.5455 117.128 11.5455C116.98 11.5455 116.852 11.5768 116.744 11.6393C116.639 11.6998 116.552 11.7838 116.484 11.8912C116.417 11.9967 116.368 12.1197 116.334 12.2603C116.303 12.399 116.287 12.5475 116.287 12.7057Z" fill="#323C47"/>
<path fill-rule="evenodd" clip-rule="evenodd" d="M96.4682 27.1294C97.4353 27.1294 98.2194 26.3664 98.2194 25.4251C98.2194 24.4838 97.4353 23.7208 96.4682 23.7208C95.501 23.7208 94.717 24.4838 94.717 25.4251C94.717 26.3664 95.501 27.1294 96.4682 27.1294Z" fill="#E33D3D" stroke="#F3A95A"/>
<path d="M108.182 24.6458V25.808C108.182 26.3646 108.127 26.8399 108.016 27.2337C107.909 27.6244 107.753 27.9417 107.547 28.1859C107.342 28.43 107.097 28.6091 106.81 28.723C106.527 28.8369 106.21 28.8939 105.858 28.8939C105.578 28.8939 105.318 28.8581 105.077 28.7865C104.839 28.7149 104.624 28.6025 104.432 28.4496C104.24 28.2966 104.076 28.0996 103.939 27.8587C103.806 27.6146 103.701 27.3233 103.627 26.9847C103.555 26.6462 103.519 26.2539 103.519 25.808V24.6458C103.519 24.0859 103.574 23.6139 103.685 23.2298C103.796 22.8425 103.954 22.5283 104.159 22.2874C104.364 22.0433 104.608 21.8659 104.891 21.7552C105.178 21.6445 105.497 21.5892 105.848 21.5892C106.131 21.5892 106.392 21.625 106.629 21.6966C106.87 21.765 107.085 21.874 107.274 22.0238C107.466 22.1735 107.629 22.3688 107.762 22.6097C107.899 22.8473 108.003 23.1354 108.075 23.474C108.146 23.8093 108.182 24.1999 108.182 24.6458ZM107.005 25.974V24.4701C107.005 24.1869 106.989 23.9378 106.957 23.723C106.924 23.5049 106.875 23.321 106.81 23.1712C106.748 23.0182 106.67 22.8945 106.576 22.8001C106.481 22.7025 106.374 22.6325 106.253 22.5902C106.133 22.5446 105.998 22.5218 105.848 22.5218C105.666 22.5218 105.503 22.5576 105.36 22.6292C105.217 22.6976 105.096 22.8083 104.999 22.9613C104.901 23.1143 104.826 23.3161 104.774 23.5667C104.725 23.8141 104.701 24.1152 104.701 24.4701V25.974C104.701 26.2604 104.717 26.5127 104.75 26.7308C104.782 26.9489 104.831 27.1361 104.896 27.2923C104.961 27.4453 105.039 27.5723 105.13 27.6732C105.225 27.7708 105.332 27.8425 105.453 27.888C105.576 27.9336 105.711 27.9564 105.858 27.9564C106.044 27.9564 106.208 27.9206 106.351 27.849C106.494 27.7774 106.615 27.6634 106.712 27.5072C106.81 27.3477 106.883 27.141 106.932 26.8871C106.981 26.6331 107.005 26.3288 107.005 25.974ZM113.998 27.8587V28.7962H109.232V27.9906L111.546 25.4662C111.8 25.1797 112.001 24.9323 112.147 24.724C112.294 24.5156 112.396 24.3285 112.455 24.1624C112.516 23.9932 112.547 23.8288 112.547 23.6693C112.547 23.4447 112.505 23.2477 112.42 23.0785C112.339 22.9059 112.219 22.7708 112.059 22.6732C111.9 22.5723 111.706 22.5218 111.478 22.5218C111.214 22.5218 110.993 22.5788 110.814 22.6927C110.635 22.8067 110.5 22.9645 110.409 23.1664C110.318 23.3649 110.272 23.5928 110.272 23.8499H109.095C109.095 23.4365 109.19 23.0589 109.378 22.7171C109.567 22.3721 109.841 22.0986 110.199 21.8968C110.557 21.6917 110.988 21.5892 111.493 21.5892C111.968 21.5892 112.372 21.669 112.704 21.8285C113.036 21.988 113.288 22.2142 113.461 22.5072C113.636 22.8001 113.724 23.1468 113.724 23.5472C113.724 23.7686 113.688 23.9883 113.617 24.2064C113.545 24.4245 113.443 24.6426 113.309 24.8607C113.179 25.0755 113.024 25.292 112.845 25.5101C112.666 25.7249 112.469 25.943 112.254 26.1644L110.716 27.8587H113.998Z" fill="#E33D3D"/>
</g>
<defs>
<linearGradient id="paint0_linear_63102_4924" x1="-187.756" y1="-69.2527" x2="-187.756" y2="87.4976" gradientUnits="userSpaceOnUse">
<stop stop-color="#5A4FF3"/>
<stop offset="1" stop-color="#00ACFF" stop-opacity="0.01"/>
</linearGradient>
<linearGradient id="paint1_linear_63102_4924" x1="99.1603" y1="72.8943" x2="105.085" y2="69.9321" gradientUnits="userSpaceOnUse">
<stop stop-color="#5A4FF3"/>
<stop offset="1" stop-color="#A2B9FD"/>
</linearGradient>
</defs>
</svg>
