<svg width="16" height="16" viewBox="0 0 16 16" fill="none" xmlns="http://www.w3.org/2000/svg">
<path d="M1.20876 8.99999H12.3788L7.49876 13.88C7.10876 14.27 7.10876 14.91 7.49876 15.3C7.88876 15.69 8.51875 15.69 8.90876 15.3L15.4988 8.70999C15.8888 8.31999 15.8888 7.68999 15.4988 7.29999L8.91876 0.699994C8.73192 0.512742 8.47827 0.407509 8.21376 0.407509C7.94924 0.407509 7.69559 0.512742 7.50876 0.699994C7.11876 1.08999 7.11876 1.71999 7.50876 2.10999L12.3788 6.99999H1.20876C0.658755 6.99999 0.208755 7.44999 0.208755 7.99999C0.208755 8.54999 0.658755 8.99999 1.20876 8.99999Z" fill="white"/>
</svg>
