<svg width="156" height="156" viewBox="0 0 156 156" fill="none" xmlns="http://www.w3.org/2000/svg">
<g filter="url(#filter0_d_63101_4893)">
<g filter="url(#filter1_d_63101_4893)">
<rect x="45" y="30" width="55.021" height="55.021" rx="4" fill="#F3A95A"/>
</g>
<path fill-rule="evenodd" clip-rule="evenodd" d="M83.218 69.729H62.7809C61.222 69.729 60 68.2763 60 66.4224V51.4306C60 49.5767 60.7009 48.2575 62.2609 48.2575H69.0435V47.127C69.0435 46.5189 69.4131 46 70.0281 46C70.6442 46 71.1427 46.494 71.1427 47.1022L71.3043 48.2575H74.6957L74.8573 47.1022C74.8573 46.494 75.3558 46 75.9708 46C76.5869 46 77.0854 46.494 77.0854 47.1022L76.9565 48.2575H83.7391C85.2991 48.2575 86 49.5767 86 51.4306V66.4224C86 68.2763 84.778 69.729 83.218 69.729ZM83.218 50.3284H77.0854V50.7761C77.0854 51.3843 76.441 51.6488 75.8261 51.6488C75.21 51.6488 74.8573 51.3843 74.8573 50.7761V50.3284H71.1427V50.7761C71.1427 51.3843 70.7889 51.6488 70.1739 51.6488C69.5578 51.6488 68.9146 51.3843 68.9146 50.7761V50.3284L62.2609 50.5183C62.0664 50.5183 62.2281 50.7467 62.2281 51.4306L62.2609 53.9097H83.7391L83.7719 51.4306C83.7719 50.7467 83.4136 50.3284 83.218 50.3284ZM83.7719 66.4224L83.7391 56.1705H62.2609L62.2281 66.4224C62.2281 67.1063 62.0664 67.4749 62.2609 67.4749H83.7391C83.9336 67.4749 83.7719 67.1063 83.7719 66.4224ZM69.0435 64.0836H65.6522C65.6522 63.8518 65.6522 60.6923 65.6522 60.6923C65.6522 60.2864 65.5323 59.5946 65.9427 59.5946H69.4097C69.8201 59.5946 70.1524 59.9224 70.1524 60.3294V63.7569C70.1524 64.1627 69.4538 64.0836 69.0435 64.0836ZM65.6522 64.0836C65.2418 64.0836 65.6522 63.7557 65.6522 64.0836V64.0836Z" fill="white"/>
</g>
<defs>
<filter id="filter0_d_63101_4893" x="0" y="0" width="155.021" height="155.021" filterUnits="userSpaceOnUse" color-interpolation-filters="sRGB">
<feFlood flood-opacity="0" result="BackgroundImageFix"/>
<feColorMatrix in="SourceAlpha" type="matrix" values="0 0 0 0 0 0 0 0 0 0 0 0 0 0 0 0 0 0 127 0" result="hardAlpha"/>
<feOffset dx="5" dy="20"/>
<feGaussianBlur stdDeviation="25"/>
<feColorMatrix type="matrix" values="0 0 0 0 0.0466601 0 0 0 0 0.108355 0 0 0 0 0.311068 0 0 0 0.2 0"/>
<feBlend mode="normal" in2="BackgroundImageFix" result="effect1_dropShadow_63101_4893"/>
<feBlend mode="normal" in="SourceGraphic" in2="effect1_dropShadow_63101_4893" result="shape"/>
</filter>
<filter id="filter1_d_63101_4893" x="29" y="15" width="89.021" height="89.021" filterUnits="userSpaceOnUse" color-interpolation-filters="sRGB">
<feFlood flood-opacity="0" result="BackgroundImageFix"/>
<feColorMatrix in="SourceAlpha" type="matrix" values="0 0 0 0 0 0 0 0 0 0 0 0 0 0 0 0 0 0 127 0" result="hardAlpha"/>
<feOffset dx="1" dy="2"/>
<feGaussianBlur stdDeviation="8.5"/>
<feColorMatrix type="matrix" values="0 0 0 0 0 0 0 0 0 0 0 0 0 0 0 0 0 0 0.07 0"/>
<feBlend mode="normal" in2="BackgroundImageFix" result="effect1_dropShadow_63101_4893"/>
<feBlend mode="normal" in="SourceGraphic" in2="effect1_dropShadow_63101_4893" result="shape"/>
</filter>
</defs>
</svg>
