<svg width="169" height="177" viewBox="0 0 169 177" fill="none" xmlns="http://www.w3.org/2000/svg">
<g filter="url(#filter0_d_63093_4745)">
<g filter="url(#filter1_d_63093_4745)">
<g filter="url(#filter2_d_63093_4745)">
<rect x="45.0902" y="38.3308" width="58.3305" height="58.3305" rx="4" fill="#F3A95A"/>
</g>
<path fill-rule="evenodd" clip-rule="evenodd" d="M88.0097 75.69L86.3152 73.9955C86.1621 73.8438 86.1825 73.1424 86.1825 72.9266V65.6353C86.1825 60.699 82.8052 56.368 78.1504 54.8164V54.6808C78.1504 52.718 76.4895 51.0526 74.5164 51.0526C72.5492 51.0526 70.881 52.718 70.881 54.6808V54.8164C66.2262 56.368 62.8503 60.699 62.8503 65.6353V72.9266C62.8503 73.1424 62.8693 73.8438 62.7176 73.9955L61.0231 75.69C60.4981 76.215 59.9323 77.1891 59.9323 78.0903C59.9323 79.2277 60.9633 80.1537 62.2306 80.1537H68.6119C69.2113 82.6896 71.5007 84.5839 74.2248 84.5839C76.9488 84.5839 79.7487 82.7538 80.3495 80.2179L86.8023 80.1537C88.0695 80.1537 89.099 79.2277 89.099 78.0903C89.099 77.192 88.5347 76.2164 88.0097 75.69ZM74.2248 82.0203C72.9343 82.0203 71.8201 81.2532 71.3156 80.1537H77.1326C76.628 81.2532 75.5139 82.0203 74.2248 82.0203ZM78.8912 77.3013C78.69 77.2518 79.0925 77.2518 78.8912 77.3013H70.1417C69.9404 77.2518 70.3429 77.2518 70.1417 77.3013H62.8504C62.8226 77.3276 62.9145 77.0505 62.8504 77.3013L64.5376 75.8052C65.169 75.1752 65.7669 73.819 65.7669 72.9266V65.6352C65.7669 61.4821 68.3757 58.0056 72.4661 57.0271C73.0436 56.8886 73.4505 56.3738 73.4505 55.7803V54.6808C73.4505 54.1471 73.9813 53.9691 74.5165 53.9691C75.0662 53.9691 75.5795 54.1368 75.5795 54.6808V55.7803C75.5795 56.3738 75.9878 56.8886 76.5653 57.0271C80.6557 58.0056 83.266 61.4821 83.266 65.6352V72.9266C83.266 73.819 83.8639 75.1752 84.4953 75.8066L86.1884 77.4982C86.2161 77.5259 86.1563 77.2678 86.1826 77.3013H78.8912Z" fill="white"/>
</g>
<path fill-rule="evenodd" clip-rule="evenodd" d="M101.278 56.3534C108.304 56.3534 114 50.6577 114 43.6316C114 36.6055 108.304 30.9098 101.278 30.9098C94.2521 30.9098 88.5564 36.6055 88.5564 43.6316C88.5564 50.6577 94.2521 56.3534 101.278 56.3534Z" fill="#E33D3D"/>
<path d="M100.412 44.2125H101.315C101.604 44.2125 101.842 44.1637 102.029 44.066C102.217 43.9645 102.356 43.8239 102.445 43.6442C102.539 43.4606 102.586 43.2477 102.586 43.0055C102.586 42.7867 102.543 42.5934 102.457 42.4254C102.375 42.2535 102.248 42.1207 102.076 42.027C101.904 41.9293 101.688 41.8805 101.426 41.8805C101.219 41.8805 101.027 41.9215 100.852 42.0035C100.676 42.0856 100.535 42.2008 100.43 42.3492C100.324 42.4977 100.272 42.6774 100.272 42.8883H98.5782C98.5782 42.4196 98.7032 42.0114 98.9532 41.6637C99.2071 41.316 99.5469 41.0446 99.9727 40.8492C100.398 40.6539 100.867 40.5563 101.379 40.5563C101.957 40.5563 102.463 40.65 102.897 40.8375C103.33 41.0211 103.668 41.2926 103.91 41.652C104.152 42.0114 104.273 42.4567 104.273 42.9879C104.273 43.2574 104.211 43.5192 104.086 43.7731C103.961 44.0231 103.781 44.2496 103.547 44.4528C103.316 44.652 103.035 44.8121 102.703 44.9332C102.371 45.0504 101.998 45.109 101.584 45.109H100.412V44.2125ZM100.412 45.4957V44.6227H101.584C102.049 44.6227 102.457 44.6754 102.809 44.7809C103.16 44.8864 103.455 45.0387 103.693 45.2379C103.932 45.4332 104.111 45.6656 104.232 45.9352C104.354 46.2008 104.414 46.4957 104.414 46.8199C104.414 47.2184 104.338 47.5739 104.186 47.8864C104.033 48.1949 103.818 48.4567 103.541 48.6715C103.268 48.8864 102.947 49.0504 102.58 49.1637C102.213 49.2731 101.813 49.3278 101.379 49.3278C101.02 49.3278 100.666 49.2789 100.318 49.1813C99.9747 49.0797 99.6622 48.9293 99.3809 48.7301C99.1036 48.527 98.8809 48.2731 98.713 47.9684C98.5489 47.6598 98.4669 47.2946 98.4669 46.8727H100.16C100.16 47.0914 100.215 47.2867 100.324 47.4586C100.434 47.6305 100.584 47.7653 100.775 47.8629C100.971 47.9606 101.188 48.0094 101.426 48.0094C101.695 48.0094 101.926 47.9606 102.117 47.8629C102.313 47.7614 102.461 47.6207 102.563 47.441C102.668 47.2574 102.721 47.0446 102.721 46.8024C102.721 46.4899 102.664 46.2399 102.551 46.0524C102.438 45.861 102.275 45.7203 102.065 45.6305C101.854 45.5406 101.604 45.4957 101.315 45.4957H100.412Z" fill="white"/>
</g>
<defs>
<filter id="filter0_d_63093_4745" x="0.09021" y="0.90979" width="168.91" height="165.752" filterUnits="userSpaceOnUse" color-interpolation-filters="sRGB">
<feFlood flood-opacity="0" result="BackgroundImageFix"/>
<feColorMatrix in="SourceAlpha" type="matrix" values="0 0 0 0 0 0 0 0 0 0 0 0 0 0 0 0 0 0 127 0" result="hardAlpha"/>
<feOffset dx="5" dy="20"/>
<feGaussianBlur stdDeviation="25"/>
<feColorMatrix type="matrix" values="0 0 0 0 0.0466601 0 0 0 0 0.108355 0 0 0 0 0.311068 0 0 0 0.2 0"/>
<feBlend mode="normal" in2="BackgroundImageFix" result="effect1_dropShadow_63093_4745"/>
<feBlend mode="normal" in="SourceGraphic" in2="effect1_dropShadow_63093_4745" result="shape"/>
</filter>
<filter id="filter1_d_63093_4745" x="0.09021" y="28.3308" width="148.331" height="148.33" filterUnits="userSpaceOnUse" color-interpolation-filters="sRGB">
<feFlood flood-opacity="0" result="BackgroundImageFix"/>
<feColorMatrix in="SourceAlpha" type="matrix" values="0 0 0 0 0 0 0 0 0 0 0 0 0 0 0 0 0 0 127 0" result="hardAlpha"/>
<feOffset dy="35"/>
<feGaussianBlur stdDeviation="22.5"/>
<feColorMatrix type="matrix" values="0 0 0 0 0.190902 0 0 0 0 0.257471 0 0 0 0 0.305677 0 0 0 0.15 0"/>
<feBlend mode="normal" in2="BackgroundImageFix" result="effect1_dropShadow_63093_4745"/>
<feBlend mode="normal" in="SourceGraphic" in2="effect1_dropShadow_63093_4745" result="shape"/>
</filter>
<filter id="filter2_d_63093_4745" x="29.0902" y="23.3308" width="92.3305" height="92.3305" filterUnits="userSpaceOnUse" color-interpolation-filters="sRGB">
<feFlood flood-opacity="0" result="BackgroundImageFix"/>
<feColorMatrix in="SourceAlpha" type="matrix" values="0 0 0 0 0 0 0 0 0 0 0 0 0 0 0 0 0 0 127 0" result="hardAlpha"/>
<feOffset dx="1" dy="2"/>
<feGaussianBlur stdDeviation="8.5"/>
<feColorMatrix type="matrix" values="0 0 0 0 0 0 0 0 0 0 0 0 0 0 0 0 0 0 0.07 0"/>
<feBlend mode="normal" in2="BackgroundImageFix" result="effect1_dropShadow_63093_4745"/>
<feBlend mode="normal" in="SourceGraphic" in2="effect1_dropShadow_63093_4745" result="shape"/>
</filter>
</defs>
</svg>
