<svg width="31" height="34" viewBox="0 0 31 34" fill="none" xmlns="http://www.w3.org/2000/svg">
<path fill-rule="evenodd" clip-rule="evenodd" d="M29.0097 24.69L27.3152 22.9955C27.1621 22.8438 27.1825 22.1424 27.1825 21.9266V14.6353C27.1825 9.69905 23.8052 5.36801 19.1504 3.81642V3.6808C19.1504 1.71798 17.4895 0.0526428 15.5164 0.0526428C13.5492 0.0526428 11.881 1.71798 11.881 3.6808V3.81642C7.2262 5.36801 3.85033 9.69905 3.85033 14.6353V21.9266C3.85033 22.1424 3.86928 22.8438 3.71762 22.9955L2.02312 24.69C1.49815 25.215 0.932343 26.1891 0.932343 27.0903C0.932343 28.2277 1.96333 29.1537 3.23056 29.1537H9.61192C10.2113 31.6896 12.5007 33.5839 15.2248 33.5839C17.9488 33.5839 20.7487 31.7538 21.3495 29.2179L27.8023 29.1537C29.0695 29.1537 30.099 28.2277 30.099 27.0903C30.099 26.192 29.5347 25.2164 29.0097 24.69ZM15.2248 31.0203C13.9343 31.0203 12.8201 30.2532 12.3156 29.1537H18.1326C17.628 30.2532 16.5139 31.0203 15.2248 31.0203ZM19.8912 26.3013C19.69 26.2518 20.0925 26.2518 19.8912 26.3013H11.1417C10.9404 26.2518 11.3429 26.2518 11.1417 26.3013H3.85036C3.82265 26.3276 3.91452 26.0505 3.85036 26.3013L5.53757 24.8052C6.16899 24.1752 6.76688 22.819 6.76688 21.9266V14.6352C6.76688 10.4821 9.37571 7.00561 13.4661 6.02712C14.0436 5.88859 14.4505 5.37382 14.4505 4.78031V3.68078C14.4505 3.14705 14.9813 2.96915 15.5165 2.96915C16.0662 2.96915 16.5795 3.13685 16.5795 3.68078V4.78031C16.5795 5.37382 16.9878 5.88859 17.5653 6.02712C21.6557 7.00561 24.266 10.4821 24.266 14.6352V21.9266C24.266 22.819 24.8639 24.1752 25.4953 24.8066L27.1884 26.4982C27.2161 26.5259 27.1563 26.2678 27.1826 26.3013H19.8912Z" fill="white"/>
</svg>
