<svg width="69" height="64" viewBox="0 0 69 64" fill="none" xmlns="http://www.w3.org/2000/svg">
<mask id="path-1-outside-1_63160_623" maskUnits="userSpaceOnUse" x="6.09369" y="51.3329" width="58" height="10" fill="black">
<rect fill="white" x="6.09369" y="51.3329" width="58" height="10"/>
<path d="M6.78277 60.3329V52.3329H11.9859V53.5477H8.23199V55.7196H11.7164V56.9344H8.23199V59.118H12.0171V60.3329H6.78277ZM17.1191 60.4501C16.5201 60.4501 16.0058 60.3186 15.5761 60.0555C15.149 59.7925 14.8196 59.4292 14.5878 58.9657C14.3587 58.4996 14.2441 57.9631 14.2441 57.3563C14.2441 56.7469 14.3613 56.2092 14.5957 55.743C14.83 55.2743 15.1608 54.9097 15.5878 54.6493C16.0175 54.3863 16.5253 54.2548 17.1113 54.2548C17.5983 54.2548 18.0293 54.3446 18.4043 54.5243C18.7819 54.7014 19.0826 54.9527 19.3066 55.2782C19.5306 55.6011 19.6582 55.9787 19.6894 56.411H18.3378C18.2832 56.1219 18.1529 55.8811 17.9472 55.6884C17.7441 55.493 17.472 55.3954 17.1308 55.3954C16.8418 55.3954 16.5878 55.4735 16.3691 55.6298C16.1503 55.7834 15.9798 56.0048 15.8574 56.2938C15.7376 56.5829 15.6777 56.9292 15.6777 57.3329C15.6777 57.7417 15.7376 58.0933 15.8574 58.3876C15.9772 58.6792 16.1451 58.9045 16.3613 59.0634C16.58 59.2196 16.8365 59.2977 17.1308 59.2977C17.3391 59.2977 17.5253 59.2587 17.6894 59.1805C17.8561 59.0998 17.9954 58.9839 18.1074 58.8329C18.2194 58.6818 18.2962 58.4983 18.3378 58.2821H19.6894C19.6556 58.7066 19.5306 59.0829 19.3144 59.411C19.0983 59.7365 18.804 59.9917 18.4316 60.1766C18.0592 60.3589 17.6217 60.4501 17.1191 60.4501ZM23.3646 56.8173V60.3329H21.9505V52.3329H23.3334V55.3524H23.4037C23.5443 55.0139 23.7617 54.7469 24.056 54.5516C24.3529 54.3537 24.7305 54.2548 25.1888 54.2548C25.6055 54.2548 25.9688 54.342 26.2787 54.5165C26.5886 54.691 26.8281 54.9462 26.9974 55.2821C27.1693 55.618 27.2552 56.0282 27.2552 56.5126V60.3329H25.8412V56.7313C25.8412 56.3277 25.737 56.0139 25.5287 55.7899C25.3229 55.5634 25.0339 55.4501 24.6615 55.4501C24.4115 55.4501 24.1875 55.5048 23.9896 55.6141C23.7943 55.7209 23.6406 55.8759 23.5287 56.079C23.4193 56.2821 23.3646 56.5282 23.3646 56.8173ZM32.4138 60.4501C31.8279 60.4501 31.3201 60.3212 30.8904 60.0634C30.4607 59.8055 30.1274 59.4449 29.8904 58.9813C29.656 58.5178 29.5388 57.9761 29.5388 57.3563C29.5388 56.7365 29.656 56.1936 29.8904 55.7274C30.1274 55.2613 30.4607 54.8993 30.8904 54.6415C31.3201 54.3837 31.8279 54.2548 32.4138 54.2548C32.9998 54.2548 33.5076 54.3837 33.9373 54.6415C34.3669 54.8993 34.699 55.2613 34.9334 55.7274C35.1703 56.1936 35.2888 56.7365 35.2888 57.3563C35.2888 57.9761 35.1703 58.5178 34.9334 58.9813C34.699 59.4449 34.3669 59.8055 33.9373 60.0634C33.5076 60.3212 32.9998 60.4501 32.4138 60.4501ZM32.4216 59.3173C32.7393 59.3173 33.005 59.23 33.2185 59.0555C33.432 58.8785 33.5909 58.6415 33.6951 58.3446C33.8018 58.0477 33.8552 57.717 33.8552 57.3524C33.8552 56.9852 33.8018 56.6532 33.6951 56.3563C33.5909 56.0568 33.432 55.8186 33.2185 55.6415C33.005 55.4644 32.7393 55.3759 32.4216 55.3759C32.0961 55.3759 31.8253 55.4644 31.6091 55.6415C31.3956 55.8186 31.2354 56.0568 31.1287 56.3563C31.0245 56.6532 30.9724 56.9852 30.9724 57.3524C30.9724 57.717 31.0245 58.0477 31.1287 58.3446C31.2354 58.6415 31.3956 58.8785 31.6091 59.0555C31.8253 59.23 32.0961 59.3173 32.4216 59.3173ZM37.6515 60.3329V52.3329H39.1007V59.118H42.6242V60.3329H37.6515ZM44.9195 60.3329V54.3329H46.3335V60.3329H44.9195ZM45.6304 53.4813C45.4065 53.4813 45.2138 53.4071 45.0523 53.2587C44.8908 53.1076 44.8101 52.9266 44.8101 52.7157C44.8101 52.5022 44.8908 52.3212 45.0523 52.1727C45.2138 52.0217 45.4065 51.9462 45.6304 51.9462C45.857 51.9462 46.0497 52.0217 46.2085 52.1727C46.37 52.3212 46.4507 52.5022 46.4507 52.7157C46.4507 52.9266 46.37 53.1076 46.2085 53.2587C46.0497 53.4071 45.857 53.4813 45.6304 53.4813ZM50.3017 56.8173V60.3329H48.8876V54.3329H50.2392V55.3524H50.3095C50.4475 55.0165 50.6676 54.7496 50.9697 54.5516C51.2744 54.3537 51.6507 54.2548 52.0986 54.2548C52.5126 54.2548 52.8733 54.3433 53.1806 54.5204C53.4905 54.6975 53.7301 54.954 53.8994 55.2899C54.0712 55.6259 54.1559 56.0334 54.1533 56.5126V60.3329H52.7392V56.7313C52.7392 56.3303 52.635 56.0165 52.4267 55.7899C52.221 55.5634 51.9358 55.4501 51.5712 55.4501C51.3238 55.4501 51.1038 55.5048 50.9111 55.6141C50.721 55.7209 50.5712 55.8759 50.4619 56.079C50.3551 56.2821 50.3017 56.5282 50.3017 56.8173ZM57.9798 58.4501L57.9759 56.743H58.2025L60.3587 54.3329H62.0111L59.3587 57.286H59.0658L57.9798 58.4501ZM56.6908 60.3329V52.3329H58.1048V60.3329H56.6908ZM60.4564 60.3329L58.5033 57.6024L59.4564 56.6063L62.1478 60.3329H60.4564Z"/>
</mask>
<path d="M6.78277 60.3329V52.3329H11.9859V53.5477H8.23199V55.7196H11.7164V56.9344H8.23199V59.118H12.0171V60.3329H6.78277ZM17.1191 60.4501C16.5201 60.4501 16.0058 60.3186 15.5761 60.0555C15.149 59.7925 14.8196 59.4292 14.5878 58.9657C14.3587 58.4996 14.2441 57.9631 14.2441 57.3563C14.2441 56.7469 14.3613 56.2092 14.5957 55.743C14.83 55.2743 15.1608 54.9097 15.5878 54.6493C16.0175 54.3863 16.5253 54.2548 17.1113 54.2548C17.5983 54.2548 18.0293 54.3446 18.4043 54.5243C18.7819 54.7014 19.0826 54.9527 19.3066 55.2782C19.5306 55.6011 19.6582 55.9787 19.6894 56.411H18.3378C18.2832 56.1219 18.1529 55.8811 17.9472 55.6884C17.7441 55.493 17.472 55.3954 17.1308 55.3954C16.8418 55.3954 16.5878 55.4735 16.3691 55.6298C16.1503 55.7834 15.9798 56.0048 15.8574 56.2938C15.7376 56.5829 15.6777 56.9292 15.6777 57.3329C15.6777 57.7417 15.7376 58.0933 15.8574 58.3876C15.9772 58.6792 16.1451 58.9045 16.3613 59.0634C16.58 59.2196 16.8365 59.2977 17.1308 59.2977C17.3391 59.2977 17.5253 59.2587 17.6894 59.1805C17.8561 59.0998 17.9954 58.9839 18.1074 58.8329C18.2194 58.6818 18.2962 58.4983 18.3378 58.2821H19.6894C19.6556 58.7066 19.5306 59.0829 19.3144 59.411C19.0983 59.7365 18.804 59.9917 18.4316 60.1766C18.0592 60.3589 17.6217 60.4501 17.1191 60.4501ZM23.3646 56.8173V60.3329H21.9505V52.3329H23.3334V55.3524H23.4037C23.5443 55.0139 23.7617 54.7469 24.056 54.5516C24.3529 54.3537 24.7305 54.2548 25.1888 54.2548C25.6055 54.2548 25.9688 54.342 26.2787 54.5165C26.5886 54.691 26.8281 54.9462 26.9974 55.2821C27.1693 55.618 27.2552 56.0282 27.2552 56.5126V60.3329H25.8412V56.7313C25.8412 56.3277 25.737 56.0139 25.5287 55.7899C25.3229 55.5634 25.0339 55.4501 24.6615 55.4501C24.4115 55.4501 24.1875 55.5048 23.9896 55.6141C23.7943 55.7209 23.6406 55.8759 23.5287 56.079C23.4193 56.2821 23.3646 56.5282 23.3646 56.8173ZM32.4138 60.4501C31.8279 60.4501 31.3201 60.3212 30.8904 60.0634C30.4607 59.8055 30.1274 59.4449 29.8904 58.9813C29.656 58.5178 29.5388 57.9761 29.5388 57.3563C29.5388 56.7365 29.656 56.1936 29.8904 55.7274C30.1274 55.2613 30.4607 54.8993 30.8904 54.6415C31.3201 54.3837 31.8279 54.2548 32.4138 54.2548C32.9998 54.2548 33.5076 54.3837 33.9373 54.6415C34.3669 54.8993 34.699 55.2613 34.9334 55.7274C35.1703 56.1936 35.2888 56.7365 35.2888 57.3563C35.2888 57.9761 35.1703 58.5178 34.9334 58.9813C34.699 59.4449 34.3669 59.8055 33.9373 60.0634C33.5076 60.3212 32.9998 60.4501 32.4138 60.4501ZM32.4216 59.3173C32.7393 59.3173 33.005 59.23 33.2185 59.0555C33.432 58.8785 33.5909 58.6415 33.6951 58.3446C33.8018 58.0477 33.8552 57.717 33.8552 57.3524C33.8552 56.9852 33.8018 56.6532 33.6951 56.3563C33.5909 56.0568 33.432 55.8186 33.2185 55.6415C33.005 55.4644 32.7393 55.3759 32.4216 55.3759C32.0961 55.3759 31.8253 55.4644 31.6091 55.6415C31.3956 55.8186 31.2354 56.0568 31.1287 56.3563C31.0245 56.6532 30.9724 56.9852 30.9724 57.3524C30.9724 57.717 31.0245 58.0477 31.1287 58.3446C31.2354 58.6415 31.3956 58.8785 31.6091 59.0555C31.8253 59.23 32.0961 59.3173 32.4216 59.3173ZM37.6515 60.3329V52.3329H39.1007V59.118H42.6242V60.3329H37.6515ZM44.9195 60.3329V54.3329H46.3335V60.3329H44.9195ZM45.6304 53.4813C45.4065 53.4813 45.2138 53.4071 45.0523 53.2587C44.8908 53.1076 44.8101 52.9266 44.8101 52.7157C44.8101 52.5022 44.8908 52.3212 45.0523 52.1727C45.2138 52.0217 45.4065 51.9462 45.6304 51.9462C45.857 51.9462 46.0497 52.0217 46.2085 52.1727C46.37 52.3212 46.4507 52.5022 46.4507 52.7157C46.4507 52.9266 46.37 53.1076 46.2085 53.2587C46.0497 53.4071 45.857 53.4813 45.6304 53.4813ZM50.3017 56.8173V60.3329H48.8876V54.3329H50.2392V55.3524H50.3095C50.4475 55.0165 50.6676 54.7496 50.9697 54.5516C51.2744 54.3537 51.6507 54.2548 52.0986 54.2548C52.5126 54.2548 52.8733 54.3433 53.1806 54.5204C53.4905 54.6975 53.7301 54.954 53.8994 55.2899C54.0712 55.6259 54.1559 56.0334 54.1533 56.5126V60.3329H52.7392V56.7313C52.7392 56.3303 52.635 56.0165 52.4267 55.7899C52.221 55.5634 51.9358 55.4501 51.5712 55.4501C51.3238 55.4501 51.1038 55.5048 50.9111 55.6141C50.721 55.7209 50.5712 55.8759 50.4619 56.079C50.3551 56.2821 50.3017 56.5282 50.3017 56.8173ZM57.9798 58.4501L57.9759 56.743H58.2025L60.3587 54.3329H62.0111L59.3587 57.286H59.0658L57.9798 58.4501ZM56.6908 60.3329V52.3329H58.1048V60.3329H56.6908ZM60.4564 60.3329L58.5033 57.6024L59.4564 56.6063L62.1478 60.3329H60.4564Z" fill="#5A4FF3"/>
<path d="M6.78277 60.3329H6.28277V60.8329H6.78277V60.3329ZM6.78277 52.3329V51.8329H6.28277V52.3329H6.78277ZM11.9859 52.3329H12.4859V51.8329H11.9859V52.3329ZM11.9859 53.5477V54.0477H12.4859V53.5477H11.9859ZM8.23199 53.5477V53.0477H7.73199V53.5477H8.23199ZM8.23199 55.7196H7.73199V56.2196H8.23199V55.7196ZM11.7164 55.7196H12.2164V55.2196H11.7164V55.7196ZM11.7164 56.9344V57.4344H12.2164V56.9344H11.7164ZM8.23199 56.9344V56.4344H7.73199V56.9344H8.23199ZM8.23199 59.118H7.73199V59.618H8.23199V59.118ZM12.0171 59.118H12.5171V58.618H12.0171V59.118ZM12.0171 60.3329V60.8329H12.5171V60.3329H12.0171ZM7.28277 60.3329V52.3329H6.28277V60.3329H7.28277ZM6.78277 52.8329H11.9859V51.8329H6.78277V52.8329ZM11.4859 52.3329V53.5477H12.4859V52.3329H11.4859ZM11.9859 53.0477H8.23199V54.0477H11.9859V53.0477ZM7.73199 53.5477V55.7196H8.73199V53.5477H7.73199ZM8.23199 56.2196H11.7164V55.2196H8.23199V56.2196ZM11.2164 55.7196V56.9344H12.2164V55.7196H11.2164ZM11.7164 56.4344H8.23199V57.4344H11.7164V56.4344ZM7.73199 56.9344V59.118H8.73199V56.9344H7.73199ZM8.23199 59.618H12.0171V58.618H8.23199V59.618ZM11.5171 59.118V60.3329H12.5171V59.118H11.5171ZM12.0171 59.8329H6.78277V60.8329H12.0171V59.8329ZM15.5761 60.0555L15.3139 60.4813L15.3151 60.482L15.5761 60.0555ZM14.5878 58.9657L14.1391 59.1863L14.1406 59.1893L14.5878 58.9657ZM14.5957 55.743L15.0424 55.9676L15.0429 55.9666L14.5957 55.743ZM15.5878 54.6493L15.8481 55.0762L15.8489 55.0757L15.5878 54.6493ZM18.4043 54.5243L18.1882 54.9752L18.192 54.977L18.4043 54.5243ZM19.3066 55.2782L18.8947 55.5616L18.8957 55.5631L19.3066 55.2782ZM19.6894 56.411V56.911H20.2269L20.1881 56.375L19.6894 56.411ZM18.3378 56.411L17.8466 56.504L17.9236 56.911H18.3378V56.411ZM17.9472 55.6884L17.6006 56.0488L17.6054 56.0533L17.9472 55.6884ZM16.3691 55.6298L16.6565 56.0389L16.6597 56.0366L16.3691 55.6298ZM15.8574 56.2938L15.3969 56.0989L15.3955 56.1024L15.8574 56.2938ZM15.8574 58.3876L15.3943 58.5761L15.3949 58.5775L15.8574 58.3876ZM16.3613 59.0634L16.0652 59.4663L16.0707 59.4702L16.3613 59.0634ZM17.6894 59.1805L17.9044 59.632L17.9074 59.6305L17.6894 59.1805ZM18.1074 58.8329L17.7057 58.5351L17.7057 58.5351L18.1074 58.8329ZM18.3378 58.2821V57.7821H17.925L17.8469 58.1875L18.3378 58.2821ZM19.6894 58.2821L20.1878 58.3219L20.2309 57.7821H19.6894V58.2821ZM19.3144 59.411L19.7309 59.6876L19.732 59.6861L19.3144 59.411ZM18.4316 60.1766L18.6514 60.6257L18.6539 60.6245L18.4316 60.1766ZM17.1191 59.9501C16.5947 59.9501 16.1745 59.8356 15.8372 59.6291L15.3151 60.482C15.8371 60.8015 16.4456 60.9501 17.1191 60.9501V59.9501ZM15.8383 59.6298C15.4933 59.4173 15.2266 59.1253 15.0351 58.7421L14.1406 59.1893C14.4126 59.7332 14.8048 60.1677 15.3139 60.4813L15.8383 59.6298ZM15.0366 58.7451C14.8464 58.3582 14.7441 57.8994 14.7441 57.3563H13.7441C13.7441 58.0268 13.871 58.6409 14.1391 59.1863L15.0366 58.7451ZM14.7441 57.3563C14.7441 56.8119 14.8485 56.3533 15.0424 55.9676L14.1489 55.5184C13.8741 56.0651 13.7441 56.682 13.7441 57.3563H14.7441ZM15.0429 55.9666C15.2374 55.5777 15.5051 55.2853 15.8481 55.0762L15.3275 54.2224C14.8164 54.5341 14.4227 54.9709 14.1484 55.5194L15.0429 55.9666ZM15.8489 55.0757C16.1879 54.8682 16.6022 54.7548 17.1113 54.7548V53.7548C16.4485 53.7548 15.8471 53.9043 15.3268 54.2228L15.8489 55.0757ZM17.1113 54.7548C17.5362 54.7548 17.8912 54.8329 18.1882 54.9752L18.6203 54.0734C18.1673 53.8563 17.6603 53.7548 17.1113 53.7548V54.7548ZM18.192 54.977C18.4938 55.1185 18.7239 55.3133 18.8947 55.5616L19.7185 54.9948C19.4414 54.592 19.0699 54.2842 18.6165 54.0716L18.192 54.977ZM18.8957 55.5631C19.0635 55.805 19.1652 56.0946 19.1907 56.4471L20.1881 56.375C20.1511 55.8628 19.9976 55.3972 19.7175 54.9932L18.8957 55.5631ZM19.6894 55.911H18.3378V56.911H19.6894V55.911ZM18.8291 56.3181C18.7556 55.9296 18.5757 55.592 18.289 55.3234L17.6054 56.0533C17.7302 56.1702 17.8107 56.3143 17.8466 56.504L18.8291 56.3181ZM18.2938 55.3279C17.9786 55.0249 17.5723 54.8954 17.1308 54.8954V55.8954C17.3716 55.8954 17.5096 55.9612 17.6007 56.0488L18.2938 55.3279ZM17.1308 54.8954C16.7458 54.8954 16.3885 55.0014 16.0785 55.2229L16.6597 56.0366C16.7872 55.9456 16.9377 55.8954 17.1308 55.8954V54.8954ZM16.0817 55.2206C15.7739 55.4368 15.5494 55.7389 15.3969 56.0989L16.3178 56.4888C16.4102 56.2707 16.5268 56.13 16.6565 56.0389L16.0817 55.2206ZM15.3955 56.1024C15.2444 56.467 15.1777 56.8818 15.1777 57.3329H16.1777C16.1777 56.9767 16.2308 56.6988 16.3193 56.4852L15.3955 56.1024ZM15.1777 57.3329C15.1777 57.7887 15.2442 58.2075 15.3943 58.5761L16.3205 58.1991C16.2309 57.9791 16.1777 57.6948 16.1777 57.3329H15.1777ZM15.3949 58.5775C15.5433 58.939 15.763 59.2441 16.0652 59.4662L16.6574 58.6605C16.5273 58.5649 16.411 58.4195 16.3199 58.1976L15.3949 58.5775ZM16.0707 59.4702C16.3823 59.6928 16.7427 59.7977 17.1308 59.7977V58.7977C16.9304 58.7977 16.7778 58.7464 16.6519 58.6565L16.0707 59.4702ZM17.1308 59.7977C17.4026 59.7977 17.664 59.7464 17.9044 59.632L17.4744 58.7291C17.3867 58.7709 17.2757 58.7977 17.1308 58.7977V59.7977ZM17.9074 59.6305C18.1478 59.5141 18.3498 59.3455 18.509 59.1307L17.7057 58.5351C17.641 58.6224 17.5643 58.6856 17.4714 58.7306L17.9074 59.6305ZM18.509 59.1307C18.6726 58.91 18.7754 58.654 18.8288 58.3767L17.8469 58.1875C17.817 58.3425 17.7661 58.4537 17.7057 58.5351L18.509 59.1307ZM18.3378 58.7821H19.6894V57.7821H18.3378V58.7821ZM19.191 58.2424C19.1633 58.5901 19.0628 58.884 18.8969 59.136L19.732 59.6861C19.9983 59.2818 20.1478 58.8231 20.1878 58.3219L19.191 58.2424ZM18.8979 59.1344C18.7334 59.3821 18.5082 59.5804 18.2092 59.7288L18.6539 60.6245C19.0998 60.4031 19.4631 60.091 19.7309 59.6876L18.8979 59.1344ZM18.2118 59.7276C17.9208 59.87 17.5614 59.9501 17.1191 59.9501V60.9501C17.682 60.9501 18.1976 60.8479 18.6514 60.6257L18.2118 59.7276ZM23.3646 60.3329V60.8329H23.8646V60.3329H23.3646ZM21.9505 60.3329H21.4505V60.8329H21.9505V60.3329ZM21.9505 52.3329V51.8329H21.4505V52.3329H21.9505ZM23.3334 52.3329H23.8334V51.8329H23.3334V52.3329ZM23.3334 55.3524H22.8334V55.8524H23.3334V55.3524ZM23.4037 55.3524V55.8524H23.7374L23.8654 55.5442L23.4037 55.3524ZM24.056 54.5516L24.3325 54.9682L24.3334 54.9677L24.056 54.5516ZM26.2787 54.5165L26.524 54.0808V54.0808L26.2787 54.5165ZM26.9974 55.2821L26.5509 55.5071L26.5523 55.5098L26.9974 55.2821ZM27.2552 60.3329V60.8329H27.7552V60.3329H27.2552ZM25.8412 60.3329H25.3412V60.8329H25.8412V60.3329ZM25.5287 55.7899L25.1585 56.1261L25.1626 56.1305L25.5287 55.7899ZM23.9896 55.6141L24.2294 56.0529L24.2314 56.0518L23.9896 55.6141ZM23.5287 56.079L23.0908 55.8376L23.0884 55.8419L23.5287 56.079ZM22.8646 56.8173V60.3329H23.8646V56.8173H22.8646ZM23.3646 59.8329H21.9505V60.8329H23.3646V59.8329ZM22.4505 60.3329V52.3329H21.4505V60.3329H22.4505ZM21.9505 52.8329H23.3334V51.8329H21.9505V52.8329ZM22.8334 52.3329V55.3524H23.8334V52.3329H22.8334ZM23.3334 55.8524H23.4037V54.8524H23.3334V55.8524ZM23.8654 55.5442C23.9695 55.2937 24.1242 55.1065 24.3325 54.9682L23.7795 54.135C23.3993 54.3874 23.1191 54.7341 22.9419 55.1606L23.8654 55.5442ZM24.3334 54.9677C24.5276 54.8382 24.8013 54.7548 25.1888 54.7548V53.7548C24.6597 53.7548 24.1781 53.8693 23.7787 54.1356L24.3334 54.9677ZM25.1888 54.7548C25.5344 54.7548 25.8103 54.8266 26.0334 54.9522L26.524 54.0808C26.1272 53.8574 25.6766 53.7548 25.1888 53.7548V54.7548ZM26.0334 54.9522C26.2516 55.0751 26.4236 55.2544 26.5509 55.5071L27.4439 55.0571C27.2327 54.6379 26.9255 54.3069 26.524 54.0808L26.0334 54.9522ZM26.5523 55.5098C26.6793 55.7582 26.7552 56.0856 26.7552 56.5126H27.7552C27.7552 55.9708 27.6592 55.4779 27.4425 55.0544L26.5523 55.5098ZM26.7552 56.5126V60.3329H27.7552V56.5126H26.7552ZM27.2552 59.8329H25.8412V60.8329H27.2552V59.8329ZM26.3412 60.3329V56.7313H25.3412V60.3329H26.3412ZM26.3412 56.7313C26.3412 56.2427 26.2137 55.7923 25.8948 55.4494L25.1626 56.1305C25.2603 56.2355 25.3412 56.4126 25.3412 56.7313H26.3412ZM25.8988 55.4538C25.5782 55.1007 25.1418 54.9501 24.6615 54.9501V55.9501C24.926 55.9501 25.0677 56.0261 25.1585 56.126L25.8988 55.4538ZM24.6615 54.9501C24.336 54.9501 24.0273 55.022 23.7478 55.1765L24.2314 56.0518C24.3477 55.9875 24.4869 55.9501 24.6615 55.9501V54.9501ZM23.7498 55.1754C23.4674 55.3298 23.2466 55.5549 23.0908 55.8376L23.9665 56.3204C24.0346 56.1968 24.1212 56.112 24.2294 56.0529L23.7498 55.1754ZM23.0884 55.8419C22.9311 56.1341 22.8646 56.466 22.8646 56.8173H23.8646C23.8646 56.5904 23.9075 56.4301 23.9689 56.316L23.0884 55.8419ZM30.8904 60.0634L30.6331 60.4921L30.8904 60.0634ZM29.8904 58.9813L29.4442 59.2069L29.4452 59.2089L29.8904 58.9813ZM29.8904 55.7274L29.4447 55.5008L29.4437 55.5028L29.8904 55.7274ZM30.8904 54.6415L31.1476 55.0702L30.8904 54.6415ZM33.9373 54.6415L33.68 55.0702L33.9373 54.6415ZM34.9334 55.7274L34.4866 55.952L34.4876 55.954L34.9334 55.7274ZM34.9334 58.9813L34.4882 58.7537L34.4871 58.7557L34.9334 58.9813ZM33.9373 60.0634L33.68 59.6346L33.9373 60.0634ZM33.2185 59.0555L33.5349 59.4427L33.5377 59.4404L33.2185 59.0555ZM33.6951 58.3446L33.2246 58.1754L33.2233 58.1791L33.6951 58.3446ZM33.6951 56.3563L33.2228 56.5206L33.2246 56.5255L33.6951 56.3563ZM33.2185 55.6415L33.5377 55.2566L33.2185 55.6415ZM31.6091 55.6415L31.2923 55.2547L31.29 55.2566L31.6091 55.6415ZM31.1287 56.3563L30.6577 56.1884L30.6569 56.1908L31.1287 56.3563ZM31.1287 58.3446L30.6568 58.5102L30.6582 58.5138L31.1287 58.3446ZM31.6091 59.0555L31.2899 59.4405L31.2951 59.4446L31.6091 59.0555ZM32.4138 59.9501C31.903 59.9501 31.4873 59.8384 31.1476 59.6346L30.6331 60.4921C31.1529 60.8039 31.7528 60.9501 32.4138 60.9501V59.9501ZM31.1476 59.6346C30.8014 59.4269 30.5317 59.1374 30.3356 58.7537L29.4452 59.2089C29.723 59.7524 30.12 60.1842 30.6331 60.4921L31.1476 59.6346ZM30.3366 58.7557C30.1438 58.3744 30.0388 57.9128 30.0388 57.3563H29.0388C29.0388 58.0395 29.1682 58.6612 29.4442 59.2069L30.3366 58.7557ZM30.0388 57.3563C30.0388 56.8 30.1438 56.3365 30.3371 55.952L29.4437 55.5028C29.1683 56.0506 29.0388 56.6731 29.0388 57.3563H30.0388ZM30.3361 55.954C30.5324 55.5678 30.8021 55.2775 31.1476 55.0702L30.6331 54.2127C30.1193 54.521 29.7223 54.9548 29.4447 55.5008L30.3361 55.954ZM31.1476 55.0702C31.4873 54.8664 31.903 54.7548 32.4138 54.7548V53.7548C31.7528 53.7548 31.1529 53.9009 30.6331 54.2127L31.1476 55.0702ZM32.4138 54.7548C32.9247 54.7548 33.3404 54.8664 33.68 55.0702L34.1945 54.2127C33.6748 53.9009 33.0748 53.7548 32.4138 53.7548V54.7548ZM33.68 55.0702C34.025 55.2772 34.293 55.5668 34.4866 55.952L35.3801 55.5028C35.105 54.9557 34.7089 54.5213 34.1945 54.2127L33.68 55.0702ZM34.4876 55.954C34.6829 56.3381 34.7888 56.8008 34.7888 57.3563H35.7888C35.7888 56.6723 35.6578 56.0491 35.3791 55.5008L34.4876 55.954ZM34.7888 57.3563C34.7888 57.912 34.6829 58.3729 34.4882 58.7537L35.3785 59.2089C35.6578 58.6627 35.7888 58.0403 35.7888 57.3563H34.7888ZM34.4871 58.7557C34.2937 59.1383 34.0258 59.4272 33.68 59.6346L34.1945 60.4921C34.7081 60.1839 35.1043 59.7514 35.3796 59.2069L34.4871 58.7557ZM33.68 59.6346C33.3404 59.8384 32.9247 59.9501 32.4138 59.9501V60.9501C33.0748 60.9501 33.6748 60.8039 34.1945 60.4921L33.68 59.6346ZM32.4216 59.8173C32.8362 59.8173 33.2187 59.7011 33.5349 59.4427L32.9021 58.6684C32.7912 58.759 32.6425 58.8173 32.4216 58.8173V59.8173ZM33.5377 59.4404C33.83 59.198 34.0368 58.8809 34.1669 58.5101L33.2233 58.1791C33.145 58.4021 33.0341 58.5589 32.8993 58.6707L33.5377 59.4404ZM34.1656 58.5138C34.2946 58.1549 34.3552 57.7659 34.3552 57.3524H33.3552C33.3552 57.6681 33.309 57.9405 33.2246 58.1754L34.1656 58.5138ZM34.3552 57.3524C34.3552 56.9368 34.2948 56.5464 34.1656 56.1871L33.2246 56.5255C33.3089 56.76 33.3552 57.0336 33.3552 57.3524H34.3552ZM34.1673 56.1921C34.0376 55.819 33.831 55.4998 33.5377 55.2566L32.8993 56.0264C33.0331 56.1373 33.1442 56.2947 33.2228 56.5206L34.1673 56.1921ZM33.5377 55.2566C33.2215 54.9944 32.838 54.8759 32.4216 54.8759V55.8759C32.6407 55.8759 32.7884 55.9343 32.8993 56.0264L33.5377 55.2566ZM32.4216 54.8759C32.0006 54.8759 31.6121 54.9927 31.2923 55.2547L31.926 56.0283C32.0384 55.9361 32.1916 55.8759 32.4216 55.8759V54.8759ZM31.29 55.2566C30.9976 55.499 30.7902 55.8169 30.6577 56.1884L31.5996 56.5242C31.6807 56.2968 31.7935 56.1381 31.9283 56.0264L31.29 55.2566ZM30.6569 56.1908C30.5312 56.5489 30.4724 56.9381 30.4724 57.3524H31.4724C31.4724 57.0324 31.5178 56.7575 31.6005 56.5219L30.6569 56.1908ZM30.4724 57.3524C30.4724 57.7646 30.5313 58.1524 30.6569 58.5101L31.6005 58.1791C31.5177 57.9431 31.4724 57.6694 31.4724 57.3524H30.4724ZM30.6582 58.5138C30.791 58.883 30.9986 59.1988 31.29 59.4404L31.9283 58.6707C31.7926 58.5581 31.6799 58.3999 31.5992 58.1754L30.6582 58.5138ZM31.2951 59.4446C31.6149 59.7028 32.0024 59.8173 32.4216 59.8173V58.8173C32.1899 58.8173 32.0356 58.7573 31.9232 58.6665L31.2951 59.4446ZM37.6515 60.3329H37.1515V60.8329H37.6515V60.3329ZM37.6515 52.3329V51.8329H37.1515V52.3329H37.6515ZM39.1007 52.3329H39.6007V51.8329H39.1007V52.3329ZM39.1007 59.118H38.6007V59.618H39.1007V59.118ZM42.6242 59.118H43.1242V58.618H42.6242V59.118ZM42.6242 60.3329V60.8329H43.1242V60.3329H42.6242ZM38.1515 60.3329V52.3329H37.1515V60.3329H38.1515ZM37.6515 52.8329H39.1007V51.8329H37.6515V52.8329ZM38.6007 52.3329V59.118H39.6007V52.3329H38.6007ZM39.1007 59.618H42.6242V58.618H39.1007V59.618ZM42.1242 59.118V60.3329H43.1242V59.118H42.1242ZM42.6242 59.8329H37.6515V60.8329H42.6242V59.8329ZM44.9195 60.3329H44.4195V60.8329H44.9195V60.3329ZM44.9195 54.3329V53.8329H44.4195V54.3329H44.9195ZM46.3335 54.3329H46.8335V53.8329H46.3335V54.3329ZM46.3335 60.3329V60.8329H46.8335V60.3329H46.3335ZM45.0523 53.2587L44.7107 53.6238L44.7139 53.6268L45.0523 53.2587ZM45.0523 52.1727L45.3907 52.5408L45.3939 52.5379L45.0523 52.1727ZM46.2085 52.1727L45.864 52.5351L45.8702 52.5408L46.2085 52.1727ZM46.2085 53.2587L46.5499 53.624L46.5501 53.6238L46.2085 53.2587ZM45.4195 60.3329V54.3329H44.4195V60.3329H45.4195ZM44.9195 54.8329H46.3335V53.8329H44.9195V54.8329ZM45.8335 54.3329V60.3329H46.8335V54.3329H45.8335ZM46.3335 59.8329H44.9195V60.8329H46.3335V59.8329ZM45.6304 52.9813C45.5289 52.9813 45.4577 52.9522 45.3907 52.8906L44.7139 53.6268C44.9698 53.862 45.284 53.9813 45.6304 53.9813V52.9813ZM45.3939 52.8935C45.328 52.8319 45.3101 52.7809 45.3101 52.7157H44.3101C44.3101 53.0724 44.4537 53.3833 44.7107 53.6238L45.3939 52.8935ZM45.3101 52.7157C45.3101 52.6463 45.3291 52.5975 45.3907 52.5408L44.7139 51.8046C44.4526 52.0449 44.3101 52.358 44.3101 52.7157H45.3101ZM45.3939 52.5379C45.4614 52.4747 45.5315 52.4462 45.6304 52.4462V51.4462C45.2814 51.4462 44.9661 51.5687 44.7107 51.8076L45.3939 52.5379ZM45.6304 52.4462C45.7335 52.4462 45.8015 52.4756 45.864 52.5351L46.5531 51.8104C46.2979 51.5677 45.9805 51.4462 45.6304 51.4462V52.4462ZM45.8702 52.5408C45.9318 52.5975 45.9507 52.6463 45.9507 52.7157H46.9507C46.9507 52.358 46.8082 52.0449 46.5469 51.8046L45.8702 52.5408ZM45.9507 52.7157C45.9507 52.7809 45.9328 52.8319 45.867 52.8935L46.5501 53.6238C46.8072 53.3833 46.9507 53.0724 46.9507 52.7157H45.9507ZM45.8672 52.8933C45.8051 52.9513 45.7361 52.9813 45.6304 52.9813V53.9813C45.9778 53.9813 46.2942 53.8629 46.5499 53.624L45.8672 52.8933ZM50.3017 60.3329V60.8329H50.8017V60.3329H50.3017ZM48.8876 60.3329H48.3876V60.8329H48.8876V60.3329ZM48.8876 54.3329V53.8329H48.3876V54.3329H48.8876ZM50.2392 54.3329H50.7392V53.8329H50.2392V54.3329ZM50.2392 55.3524H49.7392V55.8524H50.2392V55.3524ZM50.3095 55.3524V55.8524H50.6447L50.772 55.5424L50.3095 55.3524ZM50.9697 54.5516L50.6973 54.1323L50.6957 54.1334L50.9697 54.5516ZM53.1806 54.5204L52.931 54.9536L52.9325 54.9545L53.1806 54.5204ZM53.8994 55.2899L53.4528 55.5149L53.4542 55.5177L53.8994 55.2899ZM54.1533 56.5126L53.6533 56.5099V56.5126H54.1533ZM54.1533 60.3329V60.8329H54.6533V60.3329H54.1533ZM52.7392 60.3329H52.2392V60.8329H52.7392V60.3329ZM52.4267 55.7899L52.0565 56.126L52.0587 56.1284L52.4267 55.7899ZM50.9111 55.6141L51.1559 56.0501L51.1579 56.049L50.9111 55.6141ZM50.4619 56.079L50.0216 55.8419L50.0193 55.8463L50.4619 56.079ZM49.8017 56.8173V60.3329H50.8017V56.8173H49.8017ZM50.3017 59.8329H48.8876V60.8329H50.3017V59.8329ZM49.3876 60.3329V54.3329H48.3876V60.3329H49.3876ZM48.8876 54.8329H50.2392V53.8329H48.8876V54.8329ZM49.7392 54.3329V55.3524H50.7392V54.3329H49.7392ZM50.2392 55.8524H50.3095V54.8524H50.2392V55.8524ZM50.772 55.5424C50.8719 55.2993 51.0265 55.1121 51.2437 54.9699L50.6957 54.1334C50.3087 54.387 50.0232 54.7337 49.847 55.1624L50.772 55.5424ZM51.2421 54.9709C51.4486 54.8368 51.7248 54.7548 52.0986 54.7548V53.7548C51.5766 53.7548 51.1001 53.8707 50.6973 54.1323L51.2421 54.9709ZM52.0986 54.7548C52.4398 54.7548 52.7115 54.8271 52.931 54.9536L53.4303 54.0872C53.0352 53.8595 52.5855 53.7548 52.0986 53.7548V54.7548ZM52.9325 54.9545C53.1525 55.0802 53.3252 55.2617 53.4529 55.5149L54.3459 55.0649C54.1349 54.6463 53.8285 54.3148 53.4287 54.0863L52.9325 54.9545ZM53.4542 55.5177C53.5811 55.7656 53.6556 56.0897 53.6533 56.5099L54.6533 56.5153C54.6562 55.9771 54.5614 55.4861 54.3445 55.0622L53.4542 55.5177ZM53.6533 56.5126V60.3329H54.6533V56.5126H53.6533ZM54.1533 59.8329H52.7392V60.8329H54.1533V59.8329ZM53.2392 60.3329V56.7313H52.2392V60.3329H53.2392ZM53.2392 56.7313C53.2392 56.244 53.1111 55.7955 52.7948 55.4515L52.0587 56.1284C52.159 56.2374 52.2392 56.4166 52.2392 56.7313H53.2392ZM52.7969 55.4538C52.4783 55.1029 52.0474 54.9501 51.5712 54.9501V55.9501C51.8242 55.9501 51.9637 56.0238 52.0565 56.126L52.7969 55.4538ZM51.5712 54.9501C51.2476 54.9501 50.9407 55.0224 50.6643 55.1793L51.1579 56.049C51.2669 55.9871 51.4001 55.9501 51.5712 55.9501V54.9501ZM50.6662 55.1782C50.3886 55.3341 50.1732 55.5604 50.0216 55.8419L50.9021 56.316C50.9693 56.1913 51.0534 56.1077 51.1559 56.0501L50.6662 55.1782ZM50.0193 55.8463C49.8663 56.1375 49.8017 56.4677 49.8017 56.8173H50.8017C50.8017 56.5887 50.8439 56.4268 50.9044 56.3116L50.0193 55.8463ZM57.9798 58.4501L57.4798 58.4512L57.4827 59.7159L58.3454 58.7911L57.9798 58.4501ZM57.9759 56.743V56.243H57.4748L57.4759 56.7442L57.9759 56.743ZM58.2025 56.743V57.243H58.4261L58.5751 57.0764L58.2025 56.743ZM60.3587 54.3329V53.8329H60.1352L59.9861 53.9995L60.3587 54.3329ZM62.0111 54.3329L62.3831 54.667L63.1322 53.8329H62.0111V54.3329ZM59.3587 57.286V57.786H59.5817L59.7307 57.6201L59.3587 57.286ZM59.0658 57.286V56.786H58.8484L58.7002 56.9449L59.0658 57.286ZM56.6908 60.3329H56.1908V60.8329H56.6908V60.3329ZM56.6908 52.3329V51.8329H56.1908V52.3329H56.6908ZM58.1048 52.3329H58.6048V51.8329H58.1048V52.3329ZM58.1048 60.3329V60.8329H58.6048V60.3329H58.1048ZM60.4564 60.3329L60.0497 60.6238L60.1993 60.8329H60.4564V60.3329ZM58.5033 57.6024L58.142 57.2567L57.8555 57.5562L58.0966 57.8933L58.5033 57.6024ZM59.4564 56.6063L59.8617 56.3136L59.5102 55.8269L59.0951 56.2606L59.4564 56.6063ZM62.1478 60.3329V60.8329H63.1257L62.5531 60.0401L62.1478 60.3329ZM58.4798 58.4489L58.4759 56.7419L57.4759 56.7442L57.4798 58.4512L58.4798 58.4489ZM57.9759 57.243H58.2025V56.243H57.9759V57.243ZM58.5751 57.0764L60.7314 54.6663L59.9861 53.9995L57.8299 56.4097L58.5751 57.0764ZM60.3587 54.8329H62.0111V53.8329H60.3587V54.8329ZM61.6391 53.9988L58.9868 56.9519L59.7307 57.6201L62.3831 54.667L61.6391 53.9988ZM59.3587 56.786H59.0658V57.786H59.3587V56.786ZM58.7002 56.9449L57.6142 58.109L58.3454 58.7911L59.4314 57.6271L58.7002 56.9449ZM57.1908 60.3329V52.3329H56.1908V60.3329H57.1908ZM56.6908 52.8329H58.1048V51.8329H56.6908V52.8329ZM57.6048 52.3329V60.3329H58.6048V52.3329H57.6048ZM58.1048 59.8329H56.6908V60.8329H58.1048V59.8329ZM60.8631 60.042L58.9099 57.3115L58.0966 57.8933L60.0497 60.6238L60.8631 60.042ZM58.8645 57.9481L59.8177 56.952L59.0951 56.2606L58.142 57.2567L58.8645 57.9481ZM59.0511 56.8991L61.7425 60.6256L62.5531 60.0401L59.8617 56.3136L59.0511 56.8991ZM62.1478 59.8329H60.4564V60.8329H62.1478V59.8329Z" fill="white" mask="url(#path-1-outside-1_63160_623)"/>
<path d="M24.4536 33.3054L31.0477 40.1113C27.3372 44.2376 24.5625 45.1068 18.5239 44.4248C14.6324 43.8605 12.6016 43.0947 9.26347 40.8459C5.2175 37.6791 3.84305 35.2934 3.16082 29.8306C3.00988 26.6638 3.43362 24.7144 4.70512 21.061C5.49201 18.9484 6.34145 17.8839 8.70456 16.2205C16.0339 13.6871 19.876 14.1638 25.4369 18.6425L41.1849 36.0368C42.5035 38.8725 45.4693 41.2139 55.848 42.9549C50.9365 45.5689 43.7675 46.5542 37.8878 41.6904L21.4375 23.483C18.2894 20.883 16.7567 20.5712 14.4922 22.3598C10.222 25.0055 11.8576 38.61 24.4536 33.3054Z" fill="#5A4FF3"/>
<path d="M19.2987 11.9419C16.0765 11.9151 14.2361 12.1378 10.9148 12.8882C13.4183 10.9719 15.06 10.1809 18.4571 9.34596C22.8978 8.50569 25.359 8.84785 29.7175 10.5047C31.9126 11.9235 33.0533 12.9531 34.8032 15.5214L47.325 29.9399C48.8601 31.7687 49.7829 32.3445 51.5693 32.3608C54.8111 32.5488 56.2047 31.4904 56.7966 26.3628C56.624 24.8022 56.4693 23.9001 54.552 21.5217C53.4491 19.7789 52.0953 19.3565 48.8344 19.241L43.7479 20.4683L37.715 13.3117C39.8937 11.2316 41.245 10.5726 43.7839 9.9096C47.2145 9.67473 49.1314 9.54843 52.4133 9.98057C55.3556 10.4439 57.4801 11.9658 62.5503 18.0847C66.361 24.0129 66.8108 27.3384 63.8468 33.274C60.9394 37.0201 58.6611 38.1513 53.1473 38.0086C48.5816 38.0785 46.4572 37.2213 43.5361 33.8684L29.5061 17.6607L25.9284 14.4331C24.216 13.1287 22.6131 12.6405 19.2987 11.9419Z" fill="#5A4FF3"/>
<path d="M24.4536 33.3054L31.0477 40.1113C27.3372 44.2376 24.5625 45.1068 18.5239 44.4248C14.6324 43.8605 12.6016 43.0947 9.26347 40.8459C5.2175 37.6791 3.84305 35.2934 3.16082 29.8306C3.00988 26.6638 3.43362 24.7144 4.70512 21.061C5.49201 18.9484 6.34145 17.8839 8.70456 16.2205C16.0339 13.6871 19.876 14.1638 25.4369 18.6425L41.1849 36.0368C42.5035 38.8725 45.4693 41.2139 55.848 42.9549C50.9365 45.5689 43.7675 46.5542 37.8878 41.6904L21.4375 23.483C18.2894 20.883 16.7567 20.5712 14.4922 22.3598C10.222 25.0055 11.8576 38.61 24.4536 33.3054Z" stroke="white" stroke-opacity="0.5"/>
<path d="M19.2987 11.9419C16.0765 11.9151 14.2361 12.1378 10.9148 12.8882C13.4183 10.9719 15.06 10.1809 18.4571 9.34596C22.8978 8.50569 25.359 8.84785 29.7175 10.5047C31.9126 11.9235 33.0533 12.9531 34.8032 15.5214L47.325 29.9399C48.8601 31.7687 49.7829 32.3445 51.5693 32.3608C54.8111 32.5488 56.2047 31.4904 56.7966 26.3628C56.624 24.8022 56.4693 23.9001 54.552 21.5217C53.4491 19.7789 52.0953 19.3565 48.8344 19.241L43.7479 20.4683L37.715 13.3117C39.8937 11.2316 41.245 10.5726 43.7839 9.9096C47.2145 9.67473 49.1314 9.54843 52.4133 9.98057C55.3556 10.4439 57.4801 11.9658 62.5503 18.0847C66.361 24.0129 66.8108 27.3384 63.8468 33.274C60.9394 37.0201 58.6611 38.1513 53.1473 38.0086C48.5816 38.0785 46.4572 37.2213 43.5361 33.8684L29.5061 17.6607L25.9284 14.4331C24.216 13.1287 22.6131 12.6405 19.2987 11.9419Z" stroke="white" stroke-opacity="0.5"/>
</svg>
