<svg width="355" height="243" viewBox="0 0 355 243" fill="none" xmlns="http://www.w3.org/2000/svg">
<g filter="url(#filter0_d_63093_4811)">
<g filter="url(#filter1_d_63093_4811)">
<rect x="45" y="30.2857" width="254.436" height="142.06" rx="7" fill="white"/>
</g>
<rect x="66.203" y="132.06" width="21.0758" height="21.0758" rx="2.26616" fill="white" stroke="#5A4FF3" stroke-opacity="0.5" stroke-width="1.13308"/>
<path fill-rule="evenodd" clip-rule="evenodd" d="M72.9604 142.247L79.4429 145.007L80.1778 138.85L72.9604 142.247ZM79.5959 145.436C79.5704 145.436 79.5451 145.431 79.5214 145.421L72.4581 142.414C72.3938 142.386 72.3517 142.326 72.3502 142.258C72.3489 142.191 72.3885 142.129 72.4517 142.1L80.3159 138.399C80.3755 138.371 80.4467 138.376 80.5014 138.412C80.5561 138.449 80.5852 138.511 80.5777 138.574L79.7769 145.282C79.7703 145.337 79.7366 145.386 79.6861 145.413C79.6582 145.428 79.6271 145.436 79.5959 145.436Z" fill="#5A4FF3"/>
<path d="M72.9604 142.247L72.888 142.094L72.5447 142.255L72.8938 142.404L72.9604 142.247ZM79.4429 145.007L79.3763 145.164L79.5848 145.252L79.6116 145.027L79.4429 145.007ZM80.1778 138.85L80.3466 138.87L80.3829 138.566L80.1054 138.697L80.1778 138.85ZM79.5214 145.421L79.4548 145.577L79.4559 145.578L79.5214 145.421ZM72.4581 142.414L72.3915 142.57L72.3915 142.57L72.4581 142.414ZM72.3502 142.258L72.1803 142.262L72.1803 142.262L72.3502 142.258ZM72.4517 142.1L72.3793 141.946L72.3792 141.946L72.4517 142.1ZM80.3159 138.399L80.3882 138.552L80.3884 138.552L80.3159 138.399ZM80.5014 138.412L80.4068 138.553L80.4072 138.554L80.5014 138.412ZM80.5777 138.574L80.7465 138.594L80.7465 138.594L80.5777 138.574ZM79.7769 145.282L79.9456 145.302L79.9456 145.302L79.7769 145.282ZM79.6861 145.413L79.6054 145.263L79.6045 145.264L79.6861 145.413ZM72.8938 142.404L79.3763 145.164L79.5095 144.851L73.0269 142.091L72.8938 142.404ZM79.6116 145.027L80.3466 138.87L80.009 138.83L79.2741 144.987L79.6116 145.027ZM80.1054 138.697L72.888 142.094L73.0327 142.401L80.2502 139.004L80.1054 138.697ZM79.5959 145.266C79.5935 145.266 79.5904 145.265 79.5868 145.264L79.4559 145.578C79.4997 145.596 79.5473 145.606 79.5959 145.606V145.266ZM79.588 145.264L72.5247 142.257L72.3915 142.57L79.4548 145.577L79.588 145.264ZM72.5247 142.257C72.5186 142.255 72.5201 142.252 72.5201 142.255L72.1803 142.262C72.1833 142.4 72.269 142.518 72.3915 142.57L72.5247 142.257ZM72.5202 142.255C72.5202 142.259 72.5183 142.256 72.5242 142.253L72.3792 141.946C72.2586 142.003 72.1777 142.124 72.1803 142.262L72.5202 142.255ZM72.5241 142.253L80.3882 138.552L80.2435 138.245L72.3793 141.946L72.5241 142.253ZM80.3884 138.552C80.391 138.551 80.3944 138.55 80.3982 138.551C80.402 138.551 80.4049 138.552 80.4068 138.553L80.5959 138.271C80.4911 138.201 80.3564 138.192 80.2434 138.245L80.3884 138.552ZM80.4072 138.554C80.409 138.555 80.4093 138.556 80.4092 138.555C80.4091 138.555 80.4089 138.554 80.409 138.554L80.7465 138.594C80.7618 138.465 80.7016 138.341 80.5956 138.271L80.4072 138.554ZM80.409 138.553L79.6081 145.262L79.9456 145.302L80.7465 138.594L80.409 138.553ZM79.6081 145.262C79.6083 145.26 79.609 145.261 79.6054 145.263L79.7668 145.563C79.8642 145.51 79.9322 145.414 79.9456 145.302L79.6081 145.262ZM79.6045 145.264C79.6025 145.265 79.5995 145.266 79.5959 145.266V145.606C79.6546 145.606 79.714 145.591 79.7677 145.562L79.6045 145.264Z" fill="#5A4FF3"/>
<path fill-rule="evenodd" clip-rule="evenodd" d="M75.7764 146.519C75.7598 146.519 75.7431 146.517 75.7265 146.513C75.6476 146.491 75.5936 146.422 75.5942 146.344L75.617 143.57C75.6173 143.528 75.6334 143.488 75.662 143.457L80.2566 138.441C80.323 138.369 80.4381 138.361 80.5139 138.424C80.5897 138.487 80.5976 138.596 80.5314 138.669L75.9811 143.637L75.9638 145.721L76.9678 144.154C77.0205 144.073 77.1326 144.047 77.2184 144.097C77.3042 144.146 77.3314 144.253 77.2789 144.335L75.932 146.436C75.8983 146.489 75.8387 146.519 75.7764 146.519Z" fill="#5A4FF3"/>
<path d="M75.7764 146.519C75.7598 146.519 75.7431 146.517 75.7265 146.513C75.6476 146.491 75.5936 146.422 75.5942 146.344L75.617 143.57C75.6173 143.528 75.6334 143.488 75.662 143.457L80.2566 138.441C80.323 138.369 80.4381 138.361 80.5139 138.424C80.5897 138.487 80.5976 138.596 80.5314 138.669L75.9811 143.637L75.9638 145.721L76.9678 144.154C77.0205 144.073 77.1326 144.047 77.2184 144.097C77.3042 144.146 77.3314 144.253 77.2789 144.335L75.932 146.436C75.8983 146.489 75.8387 146.519 75.7764 146.519" stroke="#5A4FF3" stroke-width="0.339924"/>
<rect x="119.771" y="132.06" width="21.9539" height="21.9539" rx="2.26616" fill="#FFD012" fill-opacity="0.1"/>
<path d="M129.251 145.605V146.207H126.911V145.605H129.251ZM127.126 141.8V146.207H126.366V141.8H127.126ZM128.945 143.64V144.234H126.911V143.64H128.945ZM129.236 141.8V142.405H126.911V141.8H129.236ZM131.956 145.072C131.956 144.981 131.942 144.901 131.913 144.83C131.887 144.759 131.84 144.695 131.771 144.636C131.703 144.578 131.606 144.521 131.481 144.467C131.357 144.41 131.2 144.353 131.008 144.294C130.798 144.23 130.605 144.158 130.427 144.079C130.251 143.998 130.098 143.906 129.967 143.801C129.836 143.694 129.734 143.572 129.661 143.434C129.588 143.295 129.552 143.135 129.552 142.953C129.552 142.773 129.589 142.61 129.664 142.463C129.741 142.315 129.849 142.188 129.988 142.081C130.129 141.972 130.296 141.888 130.488 141.83C130.679 141.769 130.891 141.739 131.123 141.739C131.45 141.739 131.732 141.8 131.968 141.921C132.206 142.042 132.389 142.204 132.516 142.408C132.645 142.612 132.71 142.837 132.71 143.083H131.956C131.956 142.938 131.925 142.81 131.862 142.699C131.801 142.586 131.709 142.497 131.583 142.432C131.46 142.368 131.304 142.335 131.114 142.335C130.935 142.335 130.785 142.363 130.666 142.417C130.547 142.472 130.458 142.545 130.4 142.638C130.341 142.731 130.312 142.836 130.312 142.953C130.312 143.036 130.331 143.111 130.369 143.18C130.408 143.247 130.466 143.309 130.545 143.368C130.624 143.424 130.723 143.478 130.842 143.528C130.961 143.579 131.101 143.627 131.263 143.673C131.507 143.746 131.72 143.827 131.901 143.916C132.083 144.002 132.234 144.101 132.355 144.212C132.477 144.323 132.567 144.45 132.628 144.591C132.688 144.73 132.719 144.888 132.719 145.066C132.719 145.252 132.681 145.419 132.607 145.569C132.532 145.716 132.425 145.842 132.286 145.947C132.149 146.05 131.983 146.13 131.789 146.186C131.598 146.241 131.384 146.268 131.147 146.268C130.936 146.268 130.727 146.24 130.521 146.183C130.317 146.127 130.131 146.041 129.964 145.926C129.796 145.809 129.663 145.663 129.564 145.49C129.465 145.314 129.416 145.109 129.416 144.875H130.176C130.176 145.019 130.2 145.141 130.248 145.242C130.299 145.343 130.368 145.425 130.457 145.49C130.546 145.552 130.649 145.599 130.766 145.629C130.885 145.659 131.012 145.675 131.147 145.675C131.325 145.675 131.473 145.649 131.593 145.599C131.714 145.548 131.804 145.478 131.865 145.387C131.926 145.296 131.956 145.191 131.956 145.072Z" fill="#FFD012"/>
<rect x="93.426" y="132.06" width="21.9539" height="21.9539" rx="2.26616" fill="#4DA1FF" fill-opacity="0.1"/>
<path d="M99.9814 142.387L98.6645 146.207H97.8683L99.5273 141.8H100.036L99.9814 142.387ZM101.083 146.207L99.7634 142.387L99.7059 141.8H100.218L101.883 146.207H101.083ZM101.02 144.573V145.175H98.6221V144.573H101.02ZM102.45 141.8H103.128L104.403 145.199L105.674 141.8H106.352L104.669 146.207H104.13L102.45 141.8ZM102.141 141.8H102.786L102.898 144.742V146.207H102.141V141.8ZM106.016 141.8H106.664V146.207H105.904V144.742L106.016 141.8Z" fill="#4DA1FF"/>
<path d="M71.9548 90.3496L74.2782 92.1894L73.4619 92.9429L71.1762 91.1282L71.9548 90.3496ZM74.2468 86.538V87.1157C74.2468 87.8023 74.161 88.4176 73.9893 88.9618C73.8177 89.506 73.5707 89.9686 73.2484 90.3496C72.926 90.7305 72.5388 91.0214 72.0867 91.2224C71.6388 91.4233 71.1364 91.5238 70.5797 91.5238C70.0397 91.5238 69.5436 91.4233 69.0915 91.2224C68.6436 91.0214 68.2542 90.7305 67.9235 90.3496C67.597 89.9686 67.3437 89.506 67.1637 88.9618C66.9837 88.4176 66.8937 87.8023 66.8937 87.1157V86.538C66.8937 85.8515 66.9816 85.2382 67.1575 84.6982C67.3375 84.154 67.5907 83.6914 67.9173 83.3105C68.2438 82.9253 68.631 82.6323 69.0789 82.4314C69.531 82.2304 70.0271 82.13 70.5671 82.13C71.1239 82.13 71.6283 82.2304 72.0804 82.4314C72.5325 82.6323 72.9198 82.9253 73.2421 83.3105C73.5644 83.6914 73.8114 84.154 73.9831 84.6982C74.1589 85.2382 74.2468 85.8515 74.2468 86.538ZM73.0474 87.1157V86.5255C73.0474 85.9813 72.9909 85.4998 72.8779 85.0812C72.7691 84.6626 72.6079 84.311 72.3944 84.0263C72.1809 83.7416 71.9213 83.5261 71.6158 83.3795C71.3102 83.233 70.9606 83.1598 70.5671 83.1598C70.1945 83.1598 69.8555 83.233 69.5499 83.3795C69.2485 83.5261 68.9889 83.7416 68.7712 84.0263C68.5536 84.311 68.3861 84.6626 68.2689 85.0812C68.1517 85.4998 68.0931 85.9813 68.0931 86.5255V87.1157C68.0931 87.6641 68.1517 88.1497 68.2689 88.5725C68.3861 88.9911 68.5536 89.3449 68.7712 89.6337C68.9931 89.9184 69.2568 90.134 69.5624 90.2805C69.868 90.427 70.2071 90.5003 70.5797 90.5003C70.9732 90.5003 71.3227 90.427 71.6283 90.2805C71.9339 90.134 72.1914 89.9184 72.4007 89.6337C72.6142 89.3449 72.7753 88.9911 72.8842 88.5725C72.993 88.1497 73.0474 87.6641 73.0474 87.1157ZM79.8122 89.8284V84.604H80.9802V91.3982H79.8688L79.8122 89.8284ZM80.032 88.3967L80.5155 88.3841C80.5155 88.8362 80.4674 89.2549 80.3711 89.64C80.279 90.0209 80.1283 90.3516 79.919 90.6321C79.7097 90.9126 79.4355 91.1324 79.0964 91.2914C78.7573 91.4463 78.345 91.5238 77.8594 91.5238C77.5287 91.5238 77.2252 91.4756 76.9489 91.3794C76.6768 91.2831 76.4424 91.1345 76.2456 90.9335C76.0489 90.7326 75.8961 90.471 75.7872 90.1486C75.6826 89.8263 75.6302 89.4391 75.6302 88.9869V84.604H76.7919V88.9995C76.7919 89.3051 76.8254 89.5584 76.8924 89.7593C76.9635 89.9561 77.0577 90.113 77.1749 90.2302C77.2963 90.3433 77.4303 90.4228 77.5768 90.4689C77.7275 90.5149 77.8824 90.5379 78.0415 90.5379C78.5355 90.5379 78.9269 90.4437 79.2157 90.2554C79.5046 90.0628 79.7118 89.8053 79.8374 89.483C79.9671 89.1565 80.032 88.7944 80.032 88.3967ZM83.7263 84.604V91.3982H82.5583V84.604H83.7263ZM82.4704 82.8018C82.4704 82.6135 82.5269 82.4544 82.6399 82.3246C82.7571 82.1948 82.9288 82.13 83.1548 82.13C83.3767 82.13 83.5462 82.1948 83.6635 82.3246C83.7849 82.4544 83.8456 82.6135 83.8456 82.8018C83.8456 82.9818 83.7849 83.1367 83.6635 83.2665C83.5462 83.3921 83.3767 83.4549 83.1548 83.4549C82.9288 83.4549 82.7571 83.3921 82.6399 83.2665C82.5269 83.1367 82.4704 82.9818 82.4704 82.8018ZM88.0233 90.5693C88.2996 90.5693 88.5549 90.5128 88.7894 90.3998C89.0238 90.2868 89.2164 90.1319 89.3671 89.9351C89.5178 89.7342 89.6036 89.506 89.6245 89.2507H90.7297C90.7087 89.6526 90.5727 90.0272 90.3215 90.3747C90.0745 90.7179 89.7501 90.9963 89.3482 91.2098C88.9464 91.4191 88.5047 91.5238 88.0233 91.5238C87.5126 91.5238 87.0667 91.4338 86.6858 91.2538C86.309 91.0738 85.9951 90.8268 85.7439 90.5128C85.4969 90.1989 85.3106 89.8388 85.1851 89.4328C85.0637 89.0225 85.003 88.5893 85.003 88.133V87.8692C85.003 87.4129 85.0637 86.9818 85.1851 86.5757C85.3106 86.1654 85.4969 85.8033 85.7439 85.4894C85.9951 85.1754 86.309 84.9284 86.6858 84.7484C87.0667 84.5684 87.5126 84.4784 88.0233 84.4784C88.5549 84.4784 89.0196 84.5873 89.4173 84.8049C89.815 85.0184 90.1269 85.3115 90.3529 85.684C90.5832 86.0524 90.7087 86.471 90.7297 86.9399H89.6245C89.6036 86.6594 89.524 86.4062 89.3859 86.1801C89.2519 85.954 89.0678 85.774 88.8333 85.6401C88.6031 85.5019 88.3331 85.4329 88.0233 85.4329C87.6675 85.4329 87.3682 85.504 87.1254 85.6464C86.8867 85.7845 86.6963 85.9729 86.5539 86.2115C86.4158 86.4459 86.3153 86.7076 86.2525 86.9964C86.1939 87.2811 86.1646 87.572 86.1646 87.8692V88.133C86.1646 88.4302 86.1939 88.7232 86.2525 89.0121C86.3111 89.3009 86.4095 89.5625 86.5477 89.797C86.69 90.0314 86.8805 90.2198 87.1191 90.3621C87.3619 90.5003 87.6633 90.5693 88.0233 90.5693ZM92.9169 81.7532V91.3982H91.7489V81.7532H92.9169ZM97.0675 84.604L94.1037 87.775L92.4459 89.4956L92.3517 88.2585L93.5385 86.8394L95.6484 84.604H97.0675ZM96.0063 91.3982L93.5825 88.1581L94.1853 87.122L97.3752 91.3982H96.0063ZM103.602 90.5693C103.878 90.5693 104.134 90.5128 104.368 90.3998C104.602 90.2868 104.795 90.1319 104.946 89.9351C105.096 89.7342 105.182 89.506 105.203 89.2507H106.308C106.287 89.6526 106.151 90.0272 105.9 90.3747C105.653 90.7179 105.329 90.9963 104.927 91.2098C104.525 91.4191 104.083 91.5238 103.602 91.5238C103.091 91.5238 102.645 91.4338 102.264 91.2538C101.888 91.0738 101.574 90.8268 101.323 90.5128C101.076 90.1989 100.889 89.8388 100.764 89.4328C100.642 89.0225 100.582 88.5893 100.582 88.133V87.8692C100.582 87.4129 100.642 86.9818 100.764 86.5757C100.889 86.1654 101.076 85.8033 101.323 85.4894C101.574 85.1754 101.888 84.9284 102.264 84.7484C102.645 84.5684 103.091 84.4784 103.602 84.4784C104.134 84.4784 104.598 84.5873 104.996 84.8049C105.394 85.0184 105.706 85.3115 105.932 85.684C106.162 86.0524 106.287 86.471 106.308 86.9399H105.203C105.182 86.6594 105.103 86.4062 104.965 86.1801C104.831 85.954 104.646 85.774 104.412 85.6401C104.182 85.5019 103.912 85.4329 103.602 85.4329C103.246 85.4329 102.947 85.504 102.704 85.6464C102.465 85.7845 102.275 85.9729 102.133 86.2115C101.994 86.4459 101.894 86.7076 101.831 86.9964C101.773 87.2811 101.743 87.572 101.743 87.8692V88.133C101.743 88.4302 101.773 88.7232 101.831 89.0121C101.89 89.3009 101.988 89.5625 102.126 89.797C102.269 90.0314 102.459 90.2198 102.698 90.3621C102.941 90.5003 103.242 90.5693 103.602 90.5693ZM108.489 81.7532V91.3982H107.328V81.7532H108.489ZM108.213 87.7436L107.729 87.7248C107.734 87.2601 107.803 86.8311 107.937 86.4376C108.071 86.0399 108.259 85.6945 108.502 85.4015C108.745 85.1084 109.033 84.8824 109.368 84.7233C109.707 84.56 110.082 84.4784 110.492 84.4784C110.827 84.4784 111.129 84.5245 111.397 84.6166C111.664 84.7045 111.893 84.8468 112.081 85.0435C112.274 85.2403 112.42 85.4957 112.521 85.8096C112.621 86.1194 112.671 86.4983 112.671 86.9462V91.3982H111.503V86.9336C111.503 86.5778 111.451 86.2931 111.346 86.0796C111.242 85.862 111.089 85.705 110.888 85.6087C110.687 85.5082 110.44 85.458 110.147 85.458C109.858 85.458 109.594 85.5187 109.356 85.6401C109.121 85.7615 108.918 85.9289 108.747 86.1424C108.579 86.3559 108.447 86.6008 108.351 86.8771C108.259 87.1492 108.213 87.4381 108.213 87.7436ZM118.13 90.2365V86.739C118.13 86.471 118.076 86.2387 117.967 86.042C117.862 85.841 117.703 85.6861 117.49 85.5773C117.276 85.4684 117.012 85.414 116.698 85.414C116.405 85.414 116.148 85.4643 115.926 85.5647C115.708 85.6652 115.537 85.7971 115.411 85.9603C115.29 86.1236 115.229 86.2994 115.229 86.4878H114.067C114.067 86.245 114.13 86.0043 114.256 85.7657C114.381 85.5271 114.561 85.3115 114.796 85.1189C115.034 84.9221 115.319 84.7673 115.65 84.6542C115.985 84.537 116.357 84.4784 116.767 84.4784C117.261 84.4784 117.697 84.5621 118.073 84.7296C118.454 84.897 118.752 85.1503 118.965 85.4894C119.183 85.8243 119.292 86.245 119.292 86.7515V89.9163C119.292 90.1423 119.311 90.383 119.348 90.6384C119.39 90.8938 119.451 91.1135 119.53 91.2977V91.3982H118.318C118.26 91.2642 118.214 91.0863 118.18 90.8645C118.147 90.6384 118.13 90.4291 118.13 90.2365ZM118.331 87.279L118.343 88.0953H117.169C116.839 88.0953 116.543 88.1225 116.284 88.1769C116.024 88.2272 115.807 88.3046 115.631 88.4093C115.455 88.5139 115.321 88.6458 115.229 88.8048C115.137 88.9597 115.091 89.1418 115.091 89.3511C115.091 89.5646 115.139 89.7593 115.235 89.9351C115.332 90.1109 115.476 90.2512 115.669 90.3558C115.865 90.4563 116.106 90.5065 116.391 90.5065C116.746 90.5065 117.06 90.4312 117.333 90.2805C117.605 90.1298 117.82 89.9456 117.979 89.7279C118.143 89.5102 118.23 89.2988 118.243 89.0937L118.739 89.6526C118.71 89.8284 118.63 90.023 118.5 90.2365C118.371 90.45 118.197 90.6551 117.979 90.8519C117.766 91.0445 117.51 91.2056 117.213 91.3354C116.92 91.461 116.589 91.5238 116.221 91.5238C115.761 91.5238 115.357 91.4338 115.009 91.2538C114.666 91.0738 114.398 90.8331 114.205 90.5317C114.017 90.2261 113.923 89.8849 113.923 89.5081C113.923 89.1439 113.994 88.8237 114.136 88.5474C114.279 88.2669 114.484 88.0346 114.752 87.8504C115.02 87.662 115.342 87.5197 115.719 87.4234C116.096 87.3271 116.516 87.279 116.981 87.279H118.331ZM123.677 84.604V85.4957H120.003V84.604H123.677ZM121.247 82.9525H122.408V89.7153C122.408 89.9456 122.444 90.1193 122.515 90.2365C122.586 90.3537 122.678 90.4312 122.791 90.4689C122.904 90.5065 123.026 90.5254 123.155 90.5254C123.252 90.5254 123.352 90.517 123.457 90.5003C123.566 90.4793 123.647 90.4626 123.702 90.45L123.708 91.3982C123.616 91.4275 123.495 91.4547 123.344 91.4798C123.197 91.5091 123.019 91.5238 122.81 91.5238C122.525 91.5238 122.264 91.4673 122.025 91.3542C121.787 91.2412 121.596 91.0528 121.454 90.7891C121.316 90.5212 121.247 90.1612 121.247 89.7091V82.9525ZM128.708 89.596C128.708 89.4286 128.671 89.2737 128.595 89.1314C128.524 88.9849 128.376 88.853 128.149 88.7358C127.928 88.6144 127.593 88.5097 127.145 88.4218C126.768 88.3423 126.427 88.2481 126.121 88.1392C125.82 88.0304 125.562 87.8985 125.349 87.7436C125.14 87.5888 124.978 87.4067 124.865 87.1973C124.752 86.988 124.696 86.7431 124.696 86.4627C124.696 86.1948 124.754 85.9415 124.872 85.7029C124.993 85.4643 125.163 85.2529 125.38 85.0687C125.602 84.8845 125.868 84.74 126.178 84.6354C126.488 84.5307 126.833 84.4784 127.214 84.4784C127.758 84.4784 128.223 84.5747 128.608 84.7673C128.993 84.9598 129.288 85.2173 129.493 85.5396C129.698 85.8578 129.801 86.2115 129.801 86.6008H128.639C128.639 86.4124 128.583 86.2303 128.47 86.0545C128.361 85.8745 128.2 85.7259 127.986 85.6087C127.777 85.4915 127.519 85.4329 127.214 85.4329C126.892 85.4329 126.63 85.4831 126.429 85.5836C126.232 85.6799 126.088 85.8033 125.996 85.954C125.908 86.1048 125.864 86.2638 125.864 86.4313C125.864 86.5569 125.885 86.6699 125.927 86.7704C125.973 86.8666 126.052 86.9566 126.165 87.0404C126.278 87.1199 126.437 87.1953 126.642 87.2664C126.848 87.3376 127.109 87.4088 127.427 87.4799C127.984 87.6055 128.443 87.7562 128.803 87.932C129.163 88.1078 129.43 88.3234 129.606 88.5788C129.782 88.8342 129.87 89.1439 129.87 89.5081C129.87 89.8053 129.807 90.0775 129.682 90.3244C129.56 90.5714 129.382 90.7849 129.148 90.9649C128.918 91.1407 128.641 91.2789 128.319 91.3794C128.001 91.4756 127.643 91.5238 127.245 91.5238C126.647 91.5238 126.14 91.417 125.726 91.2035C125.311 90.99 124.997 90.7138 124.784 90.3747C124.57 90.0356 124.464 89.6777 124.464 89.3009H125.631C125.648 89.6191 125.74 89.8723 125.908 90.0607C126.075 90.2449 126.28 90.3768 126.523 90.4563C126.766 90.5317 127.007 90.5693 127.245 90.5693C127.563 90.5693 127.829 90.5275 128.043 90.4437C128.26 90.36 128.426 90.2449 128.539 90.0984C128.652 89.9519 128.708 89.7844 128.708 89.596ZM132.164 90.0168V90.9524C132.164 91.3333 132.068 91.7352 131.875 92.158C131.683 92.585 131.413 92.9408 131.065 93.2255L130.406 92.7671C130.54 92.5829 130.653 92.3945 130.745 92.2019C130.837 92.0136 130.906 91.8168 130.952 91.6117C131.002 91.4108 131.027 91.1973 131.027 90.9712V90.0168H132.164ZM139.081 91.5238C138.608 91.5238 138.179 91.4442 137.794 91.2852C137.413 91.1219 137.085 90.8938 136.808 90.6007C136.536 90.3077 136.327 89.9602 136.18 89.5584C136.034 89.1565 135.961 88.7169 135.961 88.2397V87.976C135.961 87.4234 136.042 86.9315 136.206 86.5003C136.369 86.065 136.591 85.6966 136.871 85.3952C137.152 85.0938 137.47 84.8656 137.826 84.7107C138.181 84.5559 138.55 84.4784 138.931 84.4784C139.416 84.4784 139.835 84.5621 140.187 84.7296C140.542 84.897 140.833 85.1315 141.059 85.4329C141.286 85.7301 141.453 86.0817 141.562 86.4878C141.671 86.8897 141.725 87.3292 141.725 87.8064V88.3276H136.651V87.3794H140.563V87.2915C140.547 86.9901 140.484 86.6971 140.375 86.4124C140.27 86.1278 140.103 85.8933 139.873 85.7092C139.642 85.525 139.328 85.4329 138.931 85.4329C138.667 85.4329 138.424 85.4894 138.202 85.6024C137.981 85.7112 137.79 85.8745 137.631 86.0922C137.472 86.3099 137.348 86.5757 137.26 86.8897C137.173 87.2036 137.129 87.5657 137.129 87.976V88.2397C137.129 88.562 137.173 88.8655 137.26 89.1502C137.353 89.4307 137.484 89.6777 137.656 89.8912C137.832 90.1047 138.043 90.2721 138.29 90.3935C138.541 90.5149 138.826 90.5756 139.144 90.5756C139.555 90.5756 139.902 90.4919 140.187 90.3244C140.471 90.157 140.72 89.933 140.934 89.6526L141.637 90.2114C141.491 90.4333 141.304 90.6447 141.078 90.8456C140.852 91.0466 140.574 91.2098 140.243 91.3354C139.917 91.461 139.529 91.5238 139.081 91.5238ZM146.801 90.2365V86.739C146.801 86.471 146.746 86.2387 146.637 86.042C146.533 85.841 146.374 85.6861 146.16 85.5773C145.947 85.4684 145.683 85.414 145.369 85.414C145.076 85.414 144.819 85.4643 144.597 85.5647C144.379 85.6652 144.207 85.7971 144.082 85.9603C143.96 86.1236 143.9 86.2994 143.9 86.4878H142.738C142.738 86.245 142.801 86.0043 142.926 85.7657C143.052 85.5271 143.232 85.3115 143.466 85.1189C143.705 84.9221 143.99 84.7673 144.32 84.6542C144.655 84.537 145.028 84.4784 145.438 84.4784C145.932 84.4784 146.367 84.5621 146.744 84.7296C147.125 84.897 147.422 85.1503 147.636 85.4894C147.854 85.8243 147.962 86.245 147.962 86.7515V89.9163C147.962 90.1423 147.981 90.383 148.019 90.6384C148.061 90.8938 148.121 91.1135 148.201 91.2977V91.3982H146.989C146.931 91.2642 146.884 91.0863 146.851 90.8645C146.817 90.6384 146.801 90.4291 146.801 90.2365ZM147.002 87.279L147.014 88.0953H145.84C145.509 88.0953 145.214 88.1225 144.955 88.1769C144.695 88.2272 144.477 88.3046 144.302 88.4093C144.126 88.5139 143.992 88.6458 143.9 88.8048C143.808 88.9597 143.762 89.1418 143.762 89.3511C143.762 89.5646 143.81 89.7593 143.906 89.9351C144.002 90.1109 144.147 90.2512 144.339 90.3558C144.536 90.4563 144.777 90.5065 145.061 90.5065C145.417 90.5065 145.731 90.4312 146.003 90.2805C146.275 90.1298 146.491 89.9456 146.65 89.7279C146.813 89.5102 146.901 89.2988 146.914 89.0937L147.41 89.6526C147.381 89.8284 147.301 90.023 147.171 90.2365C147.041 90.45 146.868 90.6551 146.65 90.8519C146.437 91.0445 146.181 91.2056 145.884 91.3354C145.591 91.461 145.26 91.5238 144.892 91.5238C144.431 91.5238 144.027 91.4338 143.68 91.2538C143.337 91.0738 143.069 90.8331 142.876 90.5317C142.688 90.2261 142.594 89.8849 142.594 89.5081C142.594 89.1439 142.665 88.8237 142.807 88.5474C142.949 88.2669 143.155 88.0346 143.422 87.8504C143.69 87.662 144.013 87.5197 144.389 87.4234C144.766 87.3271 145.187 87.279 145.652 87.279H147.002ZM153.459 89.596C153.459 89.4286 153.421 89.2737 153.346 89.1314C153.275 88.9849 153.126 88.853 152.9 88.7358C152.678 88.6144 152.343 88.5097 151.895 88.4218C151.518 88.3423 151.177 88.2481 150.872 88.1392C150.57 88.0304 150.313 87.8985 150.099 87.7436C149.89 87.5888 149.729 87.4067 149.616 87.1973C149.503 86.988 149.446 86.7431 149.446 86.4627C149.446 86.1948 149.505 85.9415 149.622 85.7029C149.744 85.4643 149.913 85.2529 150.131 85.0687C150.353 84.8845 150.618 84.74 150.928 84.6354C151.238 84.5307 151.583 84.4784 151.964 84.4784C152.509 84.4784 152.973 84.5747 153.358 84.7673C153.743 84.9598 154.039 85.2173 154.244 85.5396C154.449 85.8578 154.551 86.2115 154.551 86.6008H153.39C153.39 86.4124 153.333 86.2303 153.22 86.0545C153.111 85.8745 152.95 85.7259 152.737 85.6087C152.527 85.4915 152.27 85.4329 151.964 85.4329C151.642 85.4329 151.38 85.4831 151.179 85.5836C150.983 85.6799 150.838 85.8033 150.746 85.954C150.658 86.1048 150.614 86.2638 150.614 86.4313C150.614 86.5569 150.635 86.6699 150.677 86.7704C150.723 86.8666 150.803 86.9566 150.916 87.0404C151.029 87.1199 151.188 87.1953 151.393 87.2664C151.598 87.3376 151.86 87.4088 152.178 87.4799C152.735 87.6055 153.193 87.7562 153.553 87.932C153.913 88.1078 154.181 88.3234 154.357 88.5788C154.533 88.8342 154.62 89.1439 154.62 89.5081C154.62 89.8053 154.558 90.0775 154.432 90.3244C154.311 90.5714 154.133 90.7849 153.898 90.9649C153.668 91.1407 153.392 91.2789 153.069 91.3794C152.751 91.4756 152.393 91.5238 151.996 91.5238C151.397 91.5238 150.891 91.417 150.476 91.2035C150.062 90.99 149.748 90.7138 149.534 90.3747C149.321 90.0356 149.214 89.6777 149.214 89.3009H150.382C150.399 89.6191 150.491 89.8723 150.658 90.0607C150.826 90.2449 151.031 90.3768 151.274 90.4563C151.516 90.5317 151.757 90.5693 151.996 90.5693C152.314 90.5693 152.58 90.5275 152.793 90.4437C153.011 90.36 153.176 90.2449 153.289 90.0984C153.402 89.9519 153.459 89.7844 153.459 89.596ZM157.768 90.6949L159.658 84.604H160.902L158.177 92.4468C158.114 92.6143 158.03 92.7943 157.925 92.9869C157.825 93.1836 157.695 93.3699 157.536 93.5457C157.377 93.7215 157.184 93.8639 156.958 93.9727C156.737 94.0857 156.471 94.1422 156.161 94.1422C156.069 94.1422 155.952 94.1297 155.809 94.1046C155.667 94.0795 155.566 94.0585 155.508 94.0418L155.502 93.0999C155.535 93.1041 155.587 93.1083 155.659 93.1124C155.734 93.1208 155.786 93.125 155.816 93.125C156.079 93.125 156.303 93.0894 156.487 93.0183C156.672 92.9513 156.827 92.8362 156.952 92.6729C157.082 92.5138 157.193 92.294 157.285 92.0136L157.768 90.6949ZM156.381 84.604L158.145 89.8786L158.447 91.1031L157.611 91.5301L155.112 84.604H156.381ZM167.286 90.5693C167.562 90.5693 167.817 90.5128 168.052 90.3998C168.286 90.2868 168.479 90.1319 168.629 89.9351C168.78 89.7342 168.866 89.506 168.887 89.2507H169.992C169.971 89.6526 169.835 90.0272 169.584 90.3747C169.337 90.7179 169.012 90.9963 168.61 91.2098C168.209 91.4191 167.767 91.5238 167.286 91.5238C166.775 91.5238 166.329 91.4338 165.948 91.2538C165.571 91.0738 165.257 90.8268 165.006 90.5128C164.759 90.1989 164.573 89.8388 164.447 89.4328C164.326 89.0225 164.265 88.5893 164.265 88.133V87.8692C164.265 87.4129 164.326 86.9818 164.447 86.5757C164.573 86.1654 164.759 85.8033 165.006 85.4894C165.257 85.1754 165.571 84.9284 165.948 84.7484C166.329 84.5684 166.775 84.4784 167.286 84.4784C167.817 84.4784 168.282 84.5873 168.68 84.8049C169.077 85.0184 169.389 85.3115 169.615 85.684C169.845 86.0524 169.971 86.471 169.992 86.9399H168.887C168.866 86.6594 168.786 86.4062 168.648 86.1801C168.514 85.954 168.33 85.774 168.096 85.6401C167.865 85.5019 167.595 85.4329 167.286 85.4329C166.93 85.4329 166.63 85.504 166.388 85.6464C166.149 85.7845 165.959 85.9729 165.816 86.2115C165.678 86.4459 165.578 86.7076 165.515 86.9964C165.456 87.2811 165.427 87.572 165.427 87.8692V88.133C165.427 88.4302 165.456 88.7232 165.515 89.0121C165.573 89.3009 165.672 89.5625 165.81 89.797C165.952 90.0314 166.143 90.2198 166.381 90.3621C166.624 90.5003 166.926 90.5693 167.286 90.5693ZM175.017 90.2365V86.739C175.017 86.471 174.963 86.2387 174.854 86.042C174.749 85.841 174.59 85.6861 174.377 85.5773C174.163 85.4684 173.9 85.414 173.586 85.414C173.293 85.414 173.035 85.4643 172.813 85.5647C172.596 85.6652 172.424 85.7971 172.298 85.9603C172.177 86.1236 172.116 86.2994 172.116 86.4878H170.955C170.955 86.245 171.017 86.0043 171.143 85.7657C171.269 85.5271 171.449 85.3115 171.683 85.1189C171.922 84.9221 172.206 84.7673 172.537 84.6542C172.872 84.537 173.245 84.4784 173.655 84.4784C174.149 84.4784 174.584 84.5621 174.961 84.7296C175.342 84.897 175.639 85.1503 175.853 85.4894C176.07 85.8243 176.179 86.245 176.179 86.7515V89.9163C176.179 90.1423 176.198 90.383 176.236 90.6384C176.277 90.8938 176.338 91.1135 176.418 91.2977V91.3982H175.206C175.147 91.2642 175.101 91.0863 175.068 90.8645C175.034 90.6384 175.017 90.4291 175.017 90.2365ZM175.218 87.279L175.231 88.0953H174.057C173.726 88.0953 173.431 88.1225 173.171 88.1769C172.912 88.2272 172.694 88.3046 172.518 88.4093C172.342 88.5139 172.208 88.6458 172.116 88.8048C172.024 88.9597 171.978 89.1418 171.978 89.3511C171.978 89.5646 172.026 89.7593 172.123 89.9351C172.219 90.1109 172.363 90.2512 172.556 90.3558C172.753 90.4563 172.993 90.5065 173.278 90.5065C173.634 90.5065 173.948 90.4312 174.22 90.2805C174.492 90.1298 174.708 89.9456 174.867 89.7279C175.03 89.5102 175.118 89.2988 175.13 89.0937L175.626 89.6526C175.597 89.8284 175.518 90.023 175.388 90.2365C175.258 90.45 175.084 90.6551 174.867 90.8519C174.653 91.0445 174.398 91.2056 174.101 91.3354C173.808 91.461 173.477 91.5238 173.108 91.5238C172.648 91.5238 172.244 91.4338 171.897 91.2538C171.553 91.0738 171.285 90.8331 171.093 90.5317C170.904 90.2261 170.81 89.8849 170.81 89.5081C170.81 89.1439 170.881 88.8237 171.024 88.5474C171.166 88.2669 171.371 88.0346 171.639 87.8504C171.907 87.662 172.229 87.5197 172.606 87.4234C172.983 87.3271 173.404 87.279 173.868 87.279H175.218ZM178.982 81.7532V91.3982H177.814V81.7532H178.982ZM181.822 81.7532V91.3982H180.654V81.7532H181.822ZM187.356 89.596C187.356 89.4286 187.318 89.2737 187.243 89.1314C187.172 88.9849 187.023 88.853 186.797 88.7358C186.575 88.6144 186.24 88.5097 185.792 88.4218C185.416 88.3423 185.074 88.2481 184.769 88.1392C184.467 88.0304 184.21 87.8985 183.996 87.7436C183.787 87.5888 183.626 87.4067 183.513 87.1973C183.4 86.988 183.343 86.7431 183.343 86.4627C183.343 86.1948 183.402 85.9415 183.519 85.7029C183.641 85.4643 183.81 85.2529 184.028 85.0687C184.25 84.8845 184.516 84.74 184.825 84.6354C185.135 84.5307 185.481 84.4784 185.861 84.4784C186.406 84.4784 186.87 84.5747 187.255 84.7673C187.641 84.9598 187.936 85.2173 188.141 85.5396C188.346 85.8578 188.449 86.2115 188.449 86.6008H187.287C187.287 86.4124 187.23 86.2303 187.117 86.0545C187.008 85.8745 186.847 85.7259 186.634 85.6087C186.424 85.4915 186.167 85.4329 185.861 85.4329C185.539 85.4329 185.277 85.4831 185.077 85.5836C184.88 85.6799 184.735 85.8033 184.643 85.954C184.555 86.1048 184.511 86.2638 184.511 86.4313C184.511 86.5569 184.532 86.6699 184.574 86.7704C184.62 86.8666 184.7 86.9566 184.813 87.0404C184.926 87.1199 185.085 87.1953 185.29 87.2664C185.495 87.3376 185.757 87.4088 186.075 87.4799C186.632 87.6055 187.09 87.7562 187.45 87.932C187.81 88.1078 188.078 88.3234 188.254 88.5788C188.43 88.8342 188.518 89.1439 188.518 89.5081C188.518 89.8053 188.455 90.0775 188.329 90.3244C188.208 90.5714 188.03 90.7849 187.795 90.9649C187.565 91.1407 187.289 91.2789 186.967 91.3794C186.648 91.4756 186.291 91.5238 185.893 91.5238C185.294 91.5238 184.788 91.417 184.373 91.2035C183.959 90.99 183.645 90.7138 183.431 90.3747C183.218 90.0356 183.111 89.6777 183.111 89.3009H184.279C184.296 89.6191 184.388 89.8723 184.555 90.0607C184.723 90.2449 184.928 90.3768 185.171 90.4563C185.414 90.5317 185.654 90.5693 185.893 90.5693C186.211 90.5693 186.477 90.5275 186.69 90.4437C186.908 90.36 187.073 90.2449 187.186 90.0984C187.299 89.9519 187.356 89.7844 187.356 89.596ZM189.775 90.7828C189.775 90.5861 189.836 90.4207 189.958 90.2868C190.083 90.1486 190.263 90.0795 190.498 90.0795C190.732 90.0795 190.91 90.1486 191.031 90.2868C191.157 90.4207 191.22 90.5861 191.22 90.7828C191.22 90.9754 191.157 91.1387 191.031 91.2726C190.91 91.4066 190.732 91.4735 190.498 91.4735C190.263 91.4735 190.083 91.4066 189.958 91.2726C189.836 91.1387 189.775 90.9754 189.775 90.7828Z" fill="#323C47"/>
<path opacity="0.696388" d="M69.0507 49.8056V55.5244H68.328V50.708L66.871 51.2392V50.5869L68.9374 49.8056H69.0507ZM73.2351 49.8056V55.5244H72.5125V50.708L71.0554 51.2392V50.5869L73.1219 49.8056H73.2351ZM75.0915 55.1416C75.0915 55.0192 75.1292 54.9163 75.2048 54.833C75.2829 54.747 75.3949 54.7041 75.5407 54.7041C75.6865 54.7041 75.7972 54.747 75.8727 54.833C75.9509 54.9163 75.9899 55.0192 75.9899 55.1416C75.9899 55.2614 75.9509 55.3629 75.8727 55.4462C75.7972 55.5296 75.6865 55.5712 75.5407 55.5712C75.3949 55.5712 75.2829 55.5296 75.2048 55.4462C75.1292 55.3629 75.0915 55.2614 75.0915 55.1416ZM75.0954 51.6923C75.0954 51.5699 75.1331 51.4671 75.2087 51.3837C75.2868 51.2978 75.3988 51.2548 75.5446 51.2548C75.6904 51.2548 75.8011 51.2978 75.8766 51.3837C75.9548 51.4671 75.9938 51.5699 75.9938 51.6923C75.9938 51.8121 75.9548 51.9137 75.8766 51.997C75.8011 52.0804 75.6904 52.122 75.5446 52.122C75.3988 52.122 75.2868 52.0804 75.2087 51.997C75.1331 51.9137 75.0954 51.8121 75.0954 51.6923ZM80.2369 52.2275V53.0947C80.2369 53.5608 80.1952 53.9541 80.1119 54.2744C80.0286 54.5947 79.9088 54.8525 79.7525 55.0478C79.5963 55.2431 79.4075 55.3851 79.1861 55.4736C78.9674 55.5595 78.72 55.6025 78.4439 55.6025C78.2252 55.6025 78.0234 55.5752 77.8385 55.5205C77.6536 55.4658 77.4869 55.3785 77.3385 55.2587C77.1926 55.1364 77.0676 54.9775 76.9635 54.7822C76.8593 54.5869 76.7799 54.3499 76.7252 54.0712C76.6705 53.7926 76.6431 53.4671 76.6431 53.0947V52.2275C76.6431 51.7614 76.6848 51.3707 76.7681 51.0556C76.8541 50.7405 76.9752 50.4879 77.1314 50.2978C77.2877 50.1051 77.4752 49.9671 77.6939 49.8837C77.9153 49.8004 78.1627 49.7587 78.4361 49.7587C78.6575 49.7587 78.8606 49.7861 79.0455 49.8408C79.233 49.8929 79.3997 49.9775 79.5455 50.0947C79.6913 50.2093 79.815 50.3629 79.9166 50.5556C80.0207 50.7457 80.1002 50.9788 80.1549 51.2548C80.2095 51.5309 80.2369 51.8551 80.2369 52.2275ZM79.5103 53.2119V52.1064C79.5103 51.8512 79.4947 51.6272 79.4635 51.4345C79.4348 51.2392 79.3918 51.0726 79.3345 50.9345C79.2773 50.7965 79.2043 50.6845 79.1158 50.5986C79.0299 50.5127 78.9296 50.4502 78.815 50.4111C78.703 50.3694 78.5767 50.3486 78.4361 50.3486C78.2642 50.3486 78.1119 50.3811 77.9791 50.4462C77.8463 50.5087 77.7343 50.609 77.6431 50.747C77.5546 50.8851 77.4869 51.066 77.44 51.29C77.3931 51.514 77.3697 51.7861 77.3697 52.1064V53.2119C77.3697 53.4671 77.384 53.6923 77.4127 53.8877C77.4439 54.083 77.4895 54.2522 77.5494 54.3955C77.6093 54.5361 77.6822 54.652 77.7681 54.7431C77.8541 54.8343 77.953 54.902 78.065 54.9462C78.1796 54.9879 78.3059 55.0087 78.4439 55.0087C78.621 55.0087 78.776 54.9749 78.9088 54.9072C79.0416 54.8395 79.1523 54.734 79.2408 54.5908C79.3319 54.4449 79.3997 54.2587 79.4439 54.0322C79.4882 53.803 79.5103 53.5296 79.5103 53.2119ZM84.4214 52.2275V53.0947C84.4214 53.5608 84.3797 53.9541 84.2964 54.2744C84.213 54.5947 84.0932 54.8525 83.937 55.0478C83.7807 55.2431 83.5919 55.3851 83.3706 55.4736C83.1518 55.5595 82.9044 55.6025 82.6284 55.6025C82.4096 55.6025 82.2078 55.5752 82.0229 55.5205C81.838 55.4658 81.6714 55.3785 81.5229 55.2587C81.3771 55.1364 81.2521 54.9775 81.1479 54.7822C81.0438 54.5869 80.9643 54.3499 80.9096 54.0712C80.855 53.7926 80.8276 53.4671 80.8276 53.0947V52.2275C80.8276 51.7614 80.8693 51.3707 80.9526 51.0556C81.0386 50.7405 81.1596 50.4879 81.3159 50.2978C81.4721 50.1051 81.6596 49.9671 81.8784 49.8837C82.0998 49.8004 82.3471 49.7587 82.6206 49.7587C82.8419 49.7587 83.0451 49.7861 83.23 49.8408C83.4175 49.8929 83.5841 49.9775 83.73 50.0947C83.8758 50.2093 83.9995 50.3629 84.1011 50.5556C84.2052 50.7457 84.2846 50.9788 84.3393 51.2548C84.394 51.5309 84.4214 51.8551 84.4214 52.2275ZM83.6948 53.2119V52.1064C83.6948 51.8512 83.6792 51.6272 83.6479 51.4345C83.6193 51.2392 83.5763 51.0726 83.519 50.9345C83.4617 50.7965 83.3888 50.6845 83.3003 50.5986C83.2143 50.5127 83.1141 50.4502 82.9995 50.4111C82.8875 50.3694 82.7612 50.3486 82.6206 50.3486C82.4487 50.3486 82.2964 50.3811 82.1636 50.4462C82.0307 50.5087 81.9188 50.609 81.8276 50.747C81.7391 50.8851 81.6714 51.066 81.6245 51.29C81.5776 51.514 81.5542 51.7861 81.5542 52.1064V53.2119C81.5542 53.4671 81.5685 53.6923 81.5971 53.8877C81.6284 54.083 81.674 54.2522 81.7339 54.3955C81.7938 54.5361 81.8667 54.652 81.9526 54.7431C82.0386 54.8343 82.1375 54.902 82.2495 54.9462C82.3641 54.9879 82.4904 55.0087 82.6284 55.0087C82.8055 55.0087 82.9604 54.9749 83.0932 54.9072C83.2261 54.8395 83.3367 54.734 83.4253 54.5908C83.5164 54.4449 83.5841 54.2587 83.6284 54.0322C83.6727 53.803 83.6948 53.5296 83.6948 53.2119ZM88.9973 50.3408L87.1145 55.5244H86.345L88.513 49.8369H89.0091L88.9973 50.3408ZM90.5755 55.5244L88.6888 50.3408L88.677 49.8369H89.1731L91.3489 55.5244H90.5755ZM90.4778 53.4189V54.0361H87.2825V53.4189H90.4778ZM92.0334 49.8369H92.7638L94.6271 54.4736L96.4865 49.8369H97.2209L94.9084 55.5244H94.3381L92.0334 49.8369ZM91.7951 49.8369H92.4396L92.5451 53.3056V55.5244H91.7951V49.8369ZM96.8107 49.8369H97.4553V55.5244H96.7053V53.3056L96.8107 49.8369ZM101.527 52.8095V53.4033H99.6211V52.8095H101.527ZM105.885 49.8056V55.5244H105.162V50.708L103.705 51.2392V50.5869L105.771 49.8056H105.885ZM110.069 49.8056V55.5244H109.346V50.708L107.889 51.2392V50.5869L109.956 49.8056H110.069ZM111.925 55.1416C111.925 55.0192 111.963 54.9163 112.039 54.833C112.117 54.747 112.229 54.7041 112.375 54.7041C112.52 54.7041 112.631 54.747 112.707 54.833C112.785 54.9163 112.824 55.0192 112.824 55.1416C112.824 55.2614 112.785 55.3629 112.707 55.4462C112.631 55.5296 112.52 55.5712 112.375 55.5712C112.229 55.5712 112.117 55.5296 112.039 55.4462C111.963 55.3629 111.925 55.2614 111.925 55.1416ZM111.929 51.6923C111.929 51.5699 111.967 51.4671 112.043 51.3837C112.121 51.2978 112.233 51.2548 112.379 51.2548C112.524 51.2548 112.635 51.2978 112.711 51.3837C112.789 51.4671 112.828 51.5699 112.828 51.6923C112.828 51.8121 112.789 51.9137 112.711 51.997C112.635 52.0804 112.524 52.122 112.379 52.122C112.233 52.122 112.121 52.0804 112.043 51.997C111.967 51.9137 111.929 51.8121 111.929 51.6923ZM114.555 52.3252H115.071C115.323 52.3252 115.532 52.2835 115.696 52.2002C115.862 52.1142 115.986 51.9983 116.067 51.8525C116.15 51.7041 116.192 51.5374 116.192 51.3525C116.192 51.1337 116.155 50.9502 116.083 50.8017C116.01 50.6533 115.9 50.5413 115.754 50.4658C115.609 50.3903 115.424 50.3525 115.2 50.3525C114.997 50.3525 114.817 50.3929 114.661 50.4736C114.507 50.5517 114.386 50.6637 114.297 50.8095C114.211 50.9554 114.168 51.1272 114.168 51.3252H113.446C113.446 51.0361 113.519 50.7731 113.665 50.5361C113.81 50.2991 114.015 50.1103 114.278 49.9697C114.543 49.8291 114.851 49.7587 115.2 49.7587C115.543 49.7587 115.844 49.8199 116.102 49.9423C116.36 50.0621 116.56 50.2418 116.704 50.4814C116.847 50.7184 116.918 51.014 116.918 51.3681C116.918 51.5114 116.885 51.665 116.817 51.8291C116.752 51.9905 116.649 52.1416 116.508 52.2822C116.37 52.4228 116.191 52.5387 115.969 52.6298C115.748 52.7184 115.482 52.7627 115.172 52.7627H114.555V52.3252ZM114.555 52.9189V52.4853H115.172C115.534 52.4853 115.834 52.5283 116.071 52.6142C116.308 52.7002 116.494 52.8147 116.629 52.958C116.767 53.1012 116.864 53.2587 116.918 53.4306C116.976 53.5999 117.004 53.7692 117.004 53.9384C117.004 54.2041 116.959 54.4397 116.868 54.6455C116.779 54.8512 116.653 55.0257 116.489 55.1689C116.327 55.3121 116.137 55.4202 115.918 55.4931C115.7 55.566 115.461 55.6025 115.204 55.6025C114.956 55.6025 114.723 55.5673 114.504 55.497C114.288 55.4267 114.097 55.3252 113.93 55.1923C113.763 55.0569 113.633 54.8916 113.54 54.6962C113.446 54.4983 113.399 54.2731 113.399 54.0205H114.122C114.122 54.2184 114.165 54.3916 114.25 54.54C114.339 54.6884 114.464 54.8043 114.625 54.8877C114.79 54.9684 114.982 55.0087 115.204 55.0087C115.425 55.0087 115.615 54.971 115.774 54.8955C115.935 54.8173 116.059 54.7002 116.145 54.5439C116.234 54.3877 116.278 54.191 116.278 53.9541C116.278 53.7171 116.228 53.5231 116.129 53.372C116.03 53.2184 115.89 53.1051 115.708 53.0322C115.528 52.9567 115.316 52.9189 115.071 52.9189H114.555ZM121.255 52.2275V53.0947C121.255 53.5608 121.214 53.9541 121.13 54.2744C121.047 54.5947 120.927 54.8525 120.771 55.0478C120.615 55.2431 120.426 55.3851 120.204 55.4736C119.986 55.5595 119.738 55.6025 119.462 55.6025C119.244 55.6025 119.042 55.5752 118.857 55.5205C118.672 55.4658 118.505 55.3785 118.357 55.2587C118.211 55.1364 118.086 54.9775 117.982 54.7822C117.878 54.5869 117.798 54.3499 117.744 54.0712C117.689 53.7926 117.662 53.4671 117.662 53.0947V52.2275C117.662 51.7614 117.703 51.3707 117.787 51.0556C117.872 50.7405 117.994 50.4879 118.15 50.2978C118.306 50.1051 118.494 49.9671 118.712 49.8837C118.934 49.8004 119.181 49.7587 119.454 49.7587C119.676 49.7587 119.879 49.7861 120.064 49.8408C120.251 49.8929 120.418 49.9775 120.564 50.0947C120.71 50.2093 120.833 50.3629 120.935 50.5556C121.039 50.7457 121.119 50.9788 121.173 51.2548C121.228 51.5309 121.255 51.8551 121.255 52.2275ZM120.529 53.2119V52.1064C120.529 51.8512 120.513 51.6272 120.482 51.4345C120.453 51.2392 120.41 51.0726 120.353 50.9345C120.296 50.7965 120.223 50.6845 120.134 50.5986C120.048 50.5127 119.948 50.4502 119.833 50.4111C119.721 50.3694 119.595 50.3486 119.454 50.3486C119.283 50.3486 119.13 50.3811 118.997 50.4462C118.865 50.5087 118.753 50.609 118.662 50.747C118.573 50.8851 118.505 51.066 118.458 51.29C118.412 51.514 118.388 51.7861 118.388 52.1064V53.2119C118.388 53.4671 118.402 53.6923 118.431 53.8877C118.462 54.083 118.508 54.2522 118.568 54.3955C118.628 54.5361 118.701 54.652 118.787 54.7431C118.872 54.8343 118.971 54.902 119.083 54.9462C119.198 54.9879 119.324 55.0087 119.462 55.0087C119.639 55.0087 119.794 54.9749 119.927 54.9072C120.06 54.8395 120.171 54.734 120.259 54.5908C120.35 54.4449 120.418 54.2587 120.462 54.0322C120.507 53.803 120.529 53.5296 120.529 53.2119ZM125.831 50.3408L123.948 55.5244H123.179L125.347 49.8369H125.843L125.831 50.3408ZM127.409 55.5244L125.523 50.3408L125.511 49.8369H126.007L128.183 55.5244H127.409ZM127.312 53.4189V54.0361H124.116V53.4189H127.312ZM128.867 49.8369H129.598L131.461 54.4736L133.32 49.8369H134.055L131.742 55.5244H131.172L128.867 49.8369ZM128.629 49.8369H129.274L129.379 53.3056V55.5244H128.629V49.8369ZM133.645 49.8369H134.289V55.5244H133.539V53.3056L133.645 49.8369Z" fill="#868686"/>
<path opacity="0.696388" d="M218.393 142.1V148.055H217.641V143.04L216.124 143.593V142.914L218.275 142.1H218.393ZM224.037 144.622V145.525C224.037 146.01 223.993 146.42 223.907 146.753C223.82 147.087 223.695 147.355 223.532 147.559C223.37 147.762 223.173 147.91 222.943 148.002C222.715 148.092 222.457 148.136 222.17 148.136C221.942 148.136 221.732 148.108 221.539 148.051C221.347 147.994 221.173 147.903 221.019 147.778C220.867 147.651 220.737 147.485 220.628 147.282C220.52 147.079 220.437 146.832 220.38 146.542C220.323 146.252 220.295 145.913 220.295 145.525V144.622C220.295 144.137 220.338 143.73 220.425 143.402C220.514 143.074 220.641 142.811 220.803 142.613C220.966 142.412 221.161 142.268 221.389 142.182C221.619 142.095 221.877 142.051 222.162 142.051C222.392 142.051 222.604 142.08 222.796 142.137C222.991 142.191 223.165 142.279 223.317 142.401C223.469 142.521 223.598 142.681 223.703 142.881C223.812 143.079 223.894 143.322 223.951 143.609C224.008 143.897 224.037 144.234 224.037 144.622ZM223.28 145.647V144.496C223.28 144.23 223.264 143.997 223.231 143.796C223.202 143.593 223.157 143.419 223.097 143.276C223.038 143.132 222.962 143.015 222.869 142.926C222.78 142.836 222.676 142.771 222.556 142.731C222.44 142.687 222.308 142.666 222.162 142.666C221.983 142.666 221.824 142.7 221.686 142.767C221.548 142.832 221.431 142.937 221.336 143.08C221.244 143.224 221.173 143.413 221.125 143.646C221.076 143.879 221.051 144.162 221.051 144.496V145.647C221.051 145.913 221.066 146.147 221.096 146.351C221.129 146.554 221.176 146.73 221.238 146.879C221.301 147.026 221.377 147.147 221.466 147.241C221.556 147.336 221.659 147.407 221.775 147.453C221.895 147.496 222.026 147.518 222.17 147.518C222.354 147.518 222.516 147.483 222.654 147.412C222.792 147.342 222.907 147.232 223 147.083C223.095 146.931 223.165 146.737 223.211 146.501C223.257 146.263 223.28 145.978 223.28 145.647ZM229.174 147.302V145.037C229.174 144.863 229.138 144.713 229.068 144.585C229 144.455 228.897 144.355 228.759 144.284C228.621 144.214 228.45 144.179 228.246 144.179C228.057 144.179 227.89 144.211 227.746 144.276C227.605 144.341 227.494 144.427 227.413 144.533C227.334 144.638 227.295 144.752 227.295 144.874H226.542C226.542 144.717 226.583 144.561 226.664 144.406C226.746 144.252 226.862 144.112 227.014 143.988C227.169 143.86 227.353 143.76 227.567 143.687C227.784 143.611 228.025 143.573 228.291 143.573C228.611 143.573 228.893 143.627 229.137 143.735C229.384 143.844 229.576 144.008 229.715 144.227C229.856 144.444 229.926 144.717 229.926 145.045V147.095C229.926 147.241 229.938 147.397 229.963 147.563C229.99 147.728 230.029 147.871 230.081 147.99V148.055H229.296C229.258 147.968 229.228 147.853 229.206 147.709C229.185 147.563 229.174 147.427 229.174 147.302ZM229.304 145.387L229.312 145.915H228.551C228.337 145.915 228.146 145.933 227.978 145.968C227.81 146.001 227.669 146.051 227.555 146.119C227.441 146.187 227.354 146.272 227.295 146.375C227.235 146.475 227.205 146.593 227.205 146.729C227.205 146.867 227.236 146.993 227.299 147.107C227.361 147.221 227.455 147.312 227.579 147.38C227.707 147.445 227.863 147.477 228.047 147.477C228.278 147.477 228.481 147.429 228.657 147.331C228.833 147.233 228.973 147.114 229.076 146.973C229.182 146.832 229.239 146.695 229.247 146.562L229.568 146.924C229.549 147.038 229.498 147.164 229.414 147.302C229.33 147.441 229.217 147.574 229.076 147.701C228.938 147.826 228.772 147.93 228.58 148.014C228.39 148.096 228.176 148.136 227.937 148.136C227.639 148.136 227.377 148.078 227.152 147.961C226.93 147.845 226.756 147.689 226.632 147.494C226.51 147.296 226.449 147.075 226.449 146.831C226.449 146.595 226.495 146.387 226.587 146.208C226.679 146.027 226.812 145.876 226.985 145.757C227.159 145.635 227.368 145.543 227.612 145.48C227.856 145.418 228.128 145.387 228.429 145.387H229.304ZM232.665 143.654V144.232H230.286V143.654H232.665ZM231.091 142.584H231.844V146.965C231.844 147.114 231.867 147.227 231.913 147.302C231.959 147.378 232.019 147.429 232.092 147.453C232.165 147.477 232.244 147.49 232.328 147.49C232.39 147.49 232.455 147.484 232.523 147.473C232.594 147.46 232.647 147.449 232.682 147.441L232.686 148.055C232.626 148.074 232.548 148.092 232.45 148.108C232.355 148.127 232.24 148.136 232.104 148.136C231.92 148.136 231.75 148.1 231.596 148.026C231.441 147.953 231.318 147.831 231.226 147.66C231.136 147.487 231.091 147.254 231.091 146.961V142.584ZM235.104 143.654V144.232H232.724V143.654H235.104ZM233.53 142.584H234.282V146.965C234.282 147.114 234.305 147.227 234.351 147.302C234.397 147.378 234.457 147.429 234.53 147.453C234.604 147.477 234.682 147.49 234.766 147.49C234.829 147.49 234.894 147.484 234.961 147.473C235.032 147.46 235.085 147.449 235.12 147.441L235.124 148.055C235.064 148.074 234.986 148.092 234.888 148.108C234.793 148.127 234.678 148.136 234.542 148.136C234.358 148.136 234.189 148.1 234.034 148.026C233.88 147.953 233.756 147.831 233.664 147.66C233.574 147.487 233.53 147.254 233.53 146.961V142.584ZM238.295 147.302V145.037C238.295 144.863 238.259 144.713 238.189 144.585C238.121 144.455 238.018 144.355 237.88 144.284C237.741 144.214 237.571 144.179 237.367 144.179C237.177 144.179 237.011 144.211 236.867 144.276C236.726 144.341 236.615 144.427 236.533 144.533C236.455 144.638 236.415 144.752 236.415 144.874H235.663C235.663 144.717 235.704 144.561 235.785 144.406C235.866 144.252 235.983 144.112 236.135 143.988C236.289 143.86 236.474 143.76 236.688 143.687C236.905 143.611 237.146 143.573 237.412 143.573C237.732 143.573 238.014 143.627 238.258 143.735C238.505 143.844 238.697 144.008 238.836 144.227C238.977 144.444 239.047 144.717 239.047 145.045V147.095C239.047 147.241 239.059 147.397 239.084 147.563C239.111 147.728 239.15 147.871 239.202 147.99V148.055H238.417C238.379 147.968 238.349 147.853 238.327 147.709C238.305 147.563 238.295 147.427 238.295 147.302ZM238.425 145.387L238.433 145.915H237.672C237.458 145.915 237.267 145.933 237.099 145.968C236.931 146.001 236.79 146.051 236.676 146.119C236.562 146.187 236.475 146.272 236.415 146.375C236.356 146.475 236.326 146.593 236.326 146.729C236.326 146.867 236.357 146.993 236.419 147.107C236.482 147.221 236.575 147.312 236.7 147.38C236.828 147.445 236.984 147.477 237.168 147.477C237.398 147.477 237.602 147.429 237.778 147.331C237.954 147.233 238.094 147.114 238.197 146.973C238.303 146.832 238.36 146.695 238.368 146.562L238.689 146.924C238.67 147.038 238.619 147.164 238.535 147.302C238.45 147.441 238.338 147.574 238.197 147.701C238.059 147.826 237.893 147.93 237.701 148.014C237.511 148.096 237.297 148.136 237.058 148.136C236.76 148.136 236.498 148.078 236.273 147.961C236.051 147.845 235.877 147.689 235.752 147.494C235.63 147.296 235.569 147.075 235.569 146.831C235.569 146.595 235.616 146.387 235.708 146.208C235.8 146.027 235.933 145.876 236.106 145.757C236.28 145.635 236.489 145.543 236.733 145.48C236.977 145.418 237.249 145.387 237.55 145.387H238.425ZM241.705 147.518C241.884 147.518 242.049 147.481 242.201 147.408C242.353 147.335 242.478 147.235 242.575 147.107C242.673 146.977 242.729 146.829 242.742 146.664H243.458C243.444 146.924 243.356 147.167 243.194 147.392C243.034 147.614 242.823 147.795 242.563 147.933C242.303 148.068 242.017 148.136 241.705 148.136C241.374 148.136 241.085 148.078 240.839 147.961C240.595 147.845 240.391 147.685 240.229 147.481C240.069 147.278 239.948 147.045 239.867 146.782C239.788 146.516 239.749 146.235 239.749 145.94V145.769C239.749 145.473 239.788 145.194 239.867 144.931C239.948 144.665 240.069 144.431 240.229 144.227C240.391 144.024 240.595 143.864 240.839 143.748C241.085 143.631 241.374 143.573 241.705 143.573C242.049 143.573 242.35 143.643 242.608 143.784C242.866 143.922 243.068 144.112 243.214 144.354C243.363 144.592 243.444 144.863 243.458 145.167H242.742C242.729 144.985 242.677 144.821 242.588 144.675C242.501 144.528 242.382 144.412 242.23 144.325C242.081 144.236 241.906 144.191 241.705 144.191C241.474 144.191 241.281 144.237 241.123 144.329C240.969 144.419 240.845 144.541 240.753 144.695C240.664 144.847 240.599 145.017 240.558 145.204C240.52 145.388 240.501 145.577 240.501 145.769V145.94C240.501 146.132 240.52 146.322 240.558 146.509C240.596 146.696 240.66 146.866 240.749 147.018C240.841 147.17 240.965 147.292 241.119 147.384C241.277 147.473 241.472 147.518 241.705 147.518ZM244.77 141.807V148.055H244.017V141.807H244.77ZM244.591 145.688L244.277 145.675C244.28 145.374 244.325 145.097 244.412 144.842C244.498 144.584 244.621 144.36 244.778 144.171C244.935 143.981 245.122 143.834 245.339 143.731C245.559 143.626 245.801 143.573 246.067 143.573C246.284 143.573 246.479 143.602 246.653 143.662C246.826 143.719 246.974 143.811 247.096 143.939C247.221 144.066 247.316 144.232 247.381 144.435C247.446 144.636 247.479 144.881 247.479 145.171V148.055H246.722V145.163C246.722 144.933 246.688 144.748 246.62 144.61C246.553 144.469 246.454 144.367 246.323 144.305C246.193 144.24 246.033 144.207 245.843 144.207C245.656 144.207 245.486 144.246 245.331 144.325C245.179 144.404 245.048 144.512 244.936 144.651C244.828 144.789 244.743 144.947 244.68 145.126C244.621 145.303 244.591 145.49 244.591 145.688ZM250.145 148.136C249.838 148.136 249.56 148.085 249.311 147.982C249.064 147.876 248.851 147.728 248.672 147.538C248.496 147.349 248.36 147.123 248.265 146.863C248.171 146.603 248.123 146.318 248.123 146.009V145.838C248.123 145.48 248.176 145.162 248.282 144.882C248.387 144.6 248.531 144.362 248.713 144.166C248.895 143.971 249.101 143.823 249.331 143.723C249.562 143.623 249.8 143.573 250.047 143.573C250.362 143.573 250.633 143.627 250.86 143.735C251.091 143.844 251.279 143.996 251.426 144.191C251.572 144.383 251.681 144.611 251.751 144.874C251.822 145.135 251.857 145.419 251.857 145.728V146.066H248.571V145.452H251.105V145.395C251.094 145.2 251.053 145.01 250.982 144.825C250.915 144.641 250.806 144.489 250.657 144.37C250.508 144.251 250.305 144.191 250.047 144.191C249.876 144.191 249.719 144.227 249.575 144.301C249.431 144.371 249.308 144.477 249.205 144.618C249.102 144.759 249.022 144.931 248.965 145.135C248.908 145.338 248.88 145.572 248.88 145.838V146.009C248.88 146.218 248.908 146.414 248.965 146.599C249.025 146.78 249.11 146.94 249.221 147.079C249.335 147.217 249.472 147.325 249.632 147.404C249.795 147.483 249.979 147.522 250.185 147.522C250.451 147.522 250.676 147.468 250.86 147.359C251.045 147.251 251.206 147.106 251.344 146.924L251.8 147.286C251.705 147.43 251.584 147.567 251.438 147.697C251.292 147.827 251.111 147.933 250.897 148.014C250.686 148.096 250.435 148.136 250.145 148.136ZM253.197 144.528V148.055H252.441V143.654H253.156L253.197 144.528ZM253.043 145.688L252.693 145.675C252.695 145.374 252.735 145.097 252.811 144.842C252.887 144.584 252.999 144.36 253.148 144.171C253.297 143.981 253.483 143.834 253.706 143.731C253.928 143.626 254.185 143.573 254.478 143.573C254.684 143.573 254.874 143.602 255.048 143.662C255.221 143.719 255.372 143.81 255.499 143.935C255.627 144.059 255.726 144.219 255.796 144.415C255.867 144.61 255.902 144.846 255.902 145.122V148.055H255.149V145.159C255.149 144.928 255.11 144.744 255.031 144.606C254.956 144.467 254.847 144.367 254.706 144.305C254.565 144.24 254.4 144.207 254.21 144.207C253.988 144.207 253.802 144.246 253.653 144.325C253.503 144.404 253.384 144.512 253.295 144.651C253.205 144.789 253.14 144.947 253.099 145.126C253.062 145.303 253.043 145.49 253.043 145.688ZM255.894 145.273L255.389 145.427C255.392 145.186 255.431 144.954 255.507 144.732C255.586 144.509 255.699 144.312 255.845 144.138C255.994 143.964 256.177 143.828 256.394 143.727C256.611 143.624 256.859 143.573 257.138 143.573C257.374 143.573 257.583 143.604 257.765 143.666C257.949 143.729 258.104 143.825 258.228 143.955C258.356 144.082 258.452 144.246 258.517 144.447C258.582 144.648 258.615 144.886 258.615 145.163V148.055H257.858V145.155C257.858 144.908 257.819 144.717 257.74 144.581C257.664 144.443 257.556 144.347 257.415 144.293C257.277 144.236 257.111 144.207 256.919 144.207C256.753 144.207 256.607 144.236 256.479 144.293C256.352 144.35 256.245 144.428 256.158 144.528C256.071 144.626 256.005 144.739 255.959 144.866C255.915 144.994 255.894 145.129 255.894 145.273ZM261.293 148.136C260.987 148.136 260.709 148.085 260.459 147.982C260.213 147.876 260 147.728 259.821 147.538C259.644 147.349 259.509 147.123 259.414 146.863C259.319 146.603 259.272 146.318 259.272 146.009V145.838C259.272 145.48 259.325 145.162 259.43 144.882C259.536 144.6 259.68 144.362 259.861 144.166C260.043 143.971 260.249 143.823 260.48 143.723C260.71 143.623 260.949 143.573 261.196 143.573C261.51 143.573 261.781 143.627 262.009 143.735C262.239 143.844 262.428 143.996 262.574 144.191C262.721 144.383 262.829 144.611 262.9 144.874C262.97 145.135 263.005 145.419 263.005 145.728V146.066H259.719V145.452H262.253V145.395C262.242 145.2 262.202 145.01 262.131 144.825C262.063 144.641 261.955 144.489 261.806 144.37C261.656 144.251 261.453 144.191 261.196 144.191C261.025 144.191 260.867 144.227 260.724 144.301C260.58 144.371 260.457 144.477 260.354 144.618C260.251 144.759 260.171 144.931 260.114 145.135C260.057 145.338 260.028 145.572 260.028 145.838V146.009C260.028 146.218 260.057 146.414 260.114 146.599C260.173 146.78 260.259 146.94 260.37 147.079C260.484 147.217 260.621 147.325 260.781 147.404C260.943 147.483 261.128 147.522 261.334 147.522C261.6 147.522 261.825 147.468 262.009 147.359C262.193 147.251 262.355 147.106 262.493 146.924L262.949 147.286C262.854 147.43 262.733 147.567 262.587 147.697C262.44 147.827 262.26 147.933 262.046 148.014C261.834 148.096 261.583 148.136 261.293 148.136ZM264.35 144.594V148.055H263.597V143.654H264.309L264.35 144.594ZM264.171 145.688L263.858 145.675C263.86 145.374 263.905 145.097 263.992 144.842C264.079 144.584 264.201 144.36 264.358 144.171C264.515 143.981 264.702 143.834 264.919 143.731C265.139 143.626 265.381 143.573 265.647 143.573C265.864 143.573 266.059 143.602 266.233 143.662C266.406 143.719 266.554 143.811 266.676 143.939C266.801 144.066 266.896 144.232 266.961 144.435C267.026 144.636 267.059 144.881 267.059 145.171V148.055H266.302V145.163C266.302 144.933 266.268 144.748 266.2 144.61C266.133 144.469 266.034 144.367 265.903 144.305C265.773 144.24 265.613 144.207 265.423 144.207C265.236 144.207 265.066 144.246 264.911 144.325C264.759 144.404 264.628 144.512 264.516 144.651C264.408 144.789 264.323 144.947 264.26 145.126C264.201 145.303 264.171 145.49 264.171 145.688ZM269.757 143.654V144.232H267.378V143.654H269.757ZM268.183 142.584H268.936V146.965C268.936 147.114 268.959 147.227 269.005 147.302C269.051 147.378 269.11 147.429 269.184 147.453C269.257 147.477 269.336 147.49 269.42 147.49C269.482 147.49 269.547 147.484 269.615 147.473C269.685 147.46 269.738 147.449 269.773 147.441L269.777 148.055C269.718 148.074 269.639 148.092 269.542 148.108C269.447 148.127 269.331 148.136 269.196 148.136C269.011 148.136 268.842 148.1 268.687 148.026C268.533 147.953 268.409 147.831 268.317 147.66C268.228 147.487 268.183 147.254 268.183 146.961V142.584ZM272.915 146.888C272.915 146.779 272.891 146.679 272.842 146.587C272.796 146.492 272.7 146.406 272.553 146.33C272.41 146.252 272.193 146.184 271.903 146.127C271.659 146.075 271.438 146.014 271.24 145.944C271.044 145.873 270.878 145.788 270.739 145.688C270.604 145.587 270.499 145.469 270.426 145.334C270.353 145.198 270.316 145.04 270.316 144.858C270.316 144.684 270.354 144.52 270.43 144.366C270.509 144.211 270.619 144.074 270.76 143.955C270.903 143.836 271.076 143.742 271.276 143.674C271.477 143.607 271.701 143.573 271.947 143.573C272.3 143.573 272.601 143.635 272.85 143.76C273.1 143.884 273.291 144.051 273.424 144.26C273.557 144.466 273.623 144.695 273.623 144.947H272.871C272.871 144.825 272.834 144.707 272.761 144.594C272.69 144.477 272.586 144.381 272.448 144.305C272.312 144.229 272.145 144.191 271.947 144.191C271.739 144.191 271.569 144.223 271.439 144.289C271.311 144.351 271.218 144.431 271.158 144.528C271.101 144.626 271.073 144.729 271.073 144.838C271.073 144.919 271.086 144.992 271.114 145.057C271.143 145.12 271.195 145.178 271.268 145.232C271.341 145.284 271.444 145.332 271.577 145.379C271.71 145.425 271.88 145.471 272.086 145.517C272.446 145.598 272.743 145.696 272.976 145.81C273.21 145.924 273.383 146.063 273.497 146.229C273.611 146.394 273.668 146.595 273.668 146.831C273.668 147.023 273.627 147.199 273.546 147.359C273.467 147.519 273.352 147.658 273.2 147.774C273.051 147.888 272.872 147.978 272.663 148.043C272.457 148.105 272.225 148.136 271.968 148.136C271.58 148.136 271.252 148.067 270.983 147.929C270.715 147.791 270.512 147.612 270.373 147.392C270.235 147.172 270.166 146.94 270.166 146.696H270.922C270.933 146.902 270.993 147.067 271.101 147.189C271.21 147.308 271.343 147.393 271.5 147.445C271.657 147.494 271.813 147.518 271.968 147.518C272.174 147.518 272.346 147.491 272.484 147.437C272.625 147.382 272.732 147.308 272.806 147.213C272.879 147.118 272.915 147.01 272.915 146.888Z" fill="#868686"/>
<path fill-rule="evenodd" clip-rule="evenodd" d="M208.262 144.531C208.251 145.842 207.069 146.902 205.613 146.902C204.156 146.902 202.975 145.842 202.963 144.531H202.962V140.349V139.751V139.153C202.962 138.163 203.852 137.361 204.95 137.361C206.048 137.361 206.938 138.163 206.938 139.153V139.751V140.349V142.444V143.197V144.531H206.936C206.925 145.182 206.337 145.707 205.613 145.707C204.888 145.707 204.301 145.182 204.29 144.531H204.288V143.933V143.197V142.444V141.543V140.842V140.164V139.751H204.95V140.33V140.946V142.2V142.846V143.483V143.933V144.531C204.95 144.861 205.247 145.128 205.613 145.128C205.979 145.128 206.275 144.861 206.275 144.531V143.483V142.846V142.2V141.543V140.487V140.349V139.751V139.153H206.274C206.274 139.147 206.275 139.141 206.275 139.135C206.275 138.475 205.682 137.94 204.95 137.94C204.218 137.94 203.625 138.475 203.625 139.135C203.625 139.141 203.626 139.147 203.626 139.153H203.625V139.751V140.349V140.487V141.543V142.935V144.531C203.625 145.521 204.515 146.323 205.613 146.323C206.711 146.323 207.601 145.521 207.601 144.531V142.935V139.153V138.556H208.263V139.153V144.531H208.262Z" fill="#5A4FF3"/>
</g>
<defs>
<filter id="filter0_d_63093_4811" x="0" y="0.285706" width="354.436" height="242.06" filterUnits="userSpaceOnUse" color-interpolation-filters="sRGB">
<feFlood flood-opacity="0" result="BackgroundImageFix"/>
<feColorMatrix in="SourceAlpha" type="matrix" values="0 0 0 0 0 0 0 0 0 0 0 0 0 0 0 0 0 0 127 0" result="hardAlpha"/>
<feOffset dx="5" dy="20"/>
<feGaussianBlur stdDeviation="25"/>
<feColorMatrix type="matrix" values="0 0 0 0 0.0466601 0 0 0 0 0.108355 0 0 0 0 0.311068 0 0 0 0.2 0"/>
<feBlend mode="normal" in2="BackgroundImageFix" result="effect1_dropShadow_63093_4811"/>
<feBlend mode="normal" in="SourceGraphic" in2="effect1_dropShadow_63093_4811" result="shape"/>
</filter>
<filter id="filter1_d_63093_4811" x="34.8023" y="22.3541" width="274.832" height="162.456" filterUnits="userSpaceOnUse" color-interpolation-filters="sRGB">
<feFlood flood-opacity="0" result="BackgroundImageFix"/>
<feColorMatrix in="SourceAlpha" type="matrix" values="0 0 0 0 0 0 0 0 0 0 0 0 0 0 0 0 0 0 127 0" result="hardAlpha"/>
<feOffset dy="2.26616"/>
<feGaussianBlur stdDeviation="5.09886"/>
<feColorMatrix type="matrix" values="0 0 0 0 0 0 0 0 0 0 0 0 0 0 0 0 0 0 0.03 0"/>
<feBlend mode="normal" in2="BackgroundImageFix" result="effect1_dropShadow_63093_4811"/>
<feBlend mode="normal" in="SourceGraphic" in2="effect1_dropShadow_63093_4811" result="shape"/>
</filter>
</defs>
</svg>
